<svg width="920" height="1075" viewBox="0 0 920 1075" fill="none" xmlns="http://www.w3.org/2000/svg">
<g opacity="0.05" clip-path="url(#clip0_4_36013)">
<path d="M1998.17 80.451L1843.27 40.3756L1685.22 4.56108L1676.13 6.35511L1660.21 7.05426L1637.33 6.72446L1607.48 5.43171L1570.68 3.3079L1527.11 0.49814L1476.98 -2.81288L1420.6 -6.38774L1358.25 -10.0022L1290.4 -13.3924L1217.3 -16.3076L1139.43 -18.4578L1057.06 -19.5791L970.628 -19.4076L880.291 -17.6532L786.474 -14.0651L689.201 -8.32687L588.817 -0.174608L485.281 10.7346L378.792 24.7439L269.27 42.262L156.807 63.7112L41.2989 89.6453L-77.3082 120.685L-184.404 153.135L-199.054 157.581L-324.122 201.297L-381.164 224.237" stroke="#F0F1F1" stroke-linecap="round" stroke-linejoin="round"/>
<path d="M1998.17 73.0636L1954.72 61.9565L1849.82 35.1384L1843.49 33.5159L1700.59 1.55321L1683.87 -2.19313L1626.6 -13.2079L1539.41 -29.9873L1523.25 -33.1005L1461.22 -43.1259L1376.67 -56.7922L1361.02 -59.3249L1293.93 -68.1368L1224.76 -77.2256L1201.95 -78.9273L1130.98 -84.9293L1039.79 -94.3216L1034.76 -94.8493L957.244 -100.522L867.857 -107.078L863.941 -106.022L861.818 -101.907L853.168 -99.2947L838.782 -96.7488L818.528 -94.2029L792.262 -91.591L759.93 -88.7944L721.507 -85.7076L677.004 -82.1855L626.502 -78.0566L570.027 -73.1363L507.75 -67.2134L439.645 -60.0636L365.949 -51.4233L286.557 -41.0153L201.653 -28.5363L111.079 -13.6169L14.9139 4.12553L-87.1054 25.1526L-195.058 50.0051L-309.354 79.3163L-381.164 99.8156" stroke="#F0F1F1" stroke-linecap="round" stroke-linejoin="round"/>
<path d="M1998.17 76.6383L1846.73 37.5919L1687.69 1.71133L1527.69 -29.3675L1366.07 -55.7898L1300.74 -64.4829L1207.25 -76.9224L1202.26 -76.1441L1197.08 -72.1999L1185.83 -70.1684L1168.47 -68.5327L1144.88 -67.2399L1115.01 -66.1978L1078.87 -65.314L1036.52 -64.4433L988.086 -63.4276L933.734 -62.0689L873.619 -60.1957L808.019 -57.5574L737.026 -53.943L660.983 -49.0886L579.93 -42.7304L494.155 -34.6045L403.634 -24.3812L308.59 -11.7439L208.905 3.70322L104.697 22.3426L-4.27152 44.702L-118.026 71.3221L-236.871 102.889L-361.056 140.221L-381.164 147.041" stroke="#F0F1F1" stroke-linecap="round" stroke-linejoin="round"/>
<path d="M1879.69 604.148L1743.16 553.598L1734.87 550.525L1728.84 535.236L1588.58 494.844L1586.57 494.264L1451.28 464.728L1447.82 463.963L1316.69 444.374L1315.13 444.136L1303.86 431.473L1176.41 422.265L1162.09 410.498L1040.74 411.488L1023.62 400.829L909.299 411.765L889.573 402.386L783.321 423.202L761.156 415.313L737.355 408.005L639.885 439.994L613.856 434.559L585.216 430.444L499.6 473.883L469.246 472.26L397.159 527.07L365.407 528.403L311.253 594.294L310.119 595.692L277.378 600.586L244.031 680.156L243.306 681.871L235.711 776.981L261.74 886.271L331.309 1011.73L413.905 1106.11" stroke="#F0F1F1" stroke-linecap="round" stroke-linejoin="round"/>
<path d="M1998.17 610.018L1875.93 560.55L1855.45 552.266L1838.33 532.637L1704.38 489.831L1691.11 485.584L1669.85 467.525L1540.43 436.446L1530.58 434.072L1527.17 433.254L1502.51 417.015L1475.01 400.777L1442.49 384.327L1407.16 368.115L1366.92 352.021L1324.12 336.469L1276.7 321.404L1227.08 307.184L1173.3 293.821L1117.72 281.579L1058.5 270.525L997.883 260.79L934.142 252.532L869.334 245.752L801.835 240.66L733.493 237.164L662.777 235.528L591.27 235.581L517.56 237.652L442.928 241.53L366.041 247.585L287.915 255.592L207.257 266L124.766 278.638L39.1892 294.019L-49.1168 312.038L-141.458 333.382L-237.82 358.036L-339.721 386.912L-381.164 399.721" stroke="#F0F1F1" stroke-linecap="round" stroke-linejoin="round"/>
<path d="M1734.87 550.525L1592.67 508.312L1462.5 478.869L1455.75 477.339L1325.91 457.143L1323.15 456.721L1315.13 444.136L1187.56 434.164L1176.41 422.265L1054.83 422.542L1040.74 411.488L926.164 421.777L909.299 411.765L802.836 431.974L783.321 423.202L686.352 453.45L664.318 446.155L639.885 439.994L554.176 481.257L527.633 477.115L499.6 473.883L426.985 527.677L397.159 527.07L343.044 591.128L341.356 593.133L307.218 669.247L306.598 670.645L298.449 761.362L323.845 865.403L392.267 984.389L503.094 1106.11" stroke="#F0F1F1" stroke-linecap="round" stroke-linejoin="round"/>
<path d="M1998.17 724.242L1865.78 659.697L1729.03 604.596L1594.16 560.959L1463.79 528.68L1339.09 507.191L1337.62 506.941L1218.03 495.517L1104.99 493.987L1000.86 502.086L906.307 519.802L823.934 546.831L755.46 583.464L704.022 629.304L672.692 684.787L665.348 749.306L682.674 809.247L686.682 823.124L709.639 832.952L731.62 843.175L751.768 853.227L783.216 895.096L809.931 930.66L810.907 931.966L822.365 942.203L849.146 966.172L882.15 995.694L904.738 1015.9L906.267 1017.27L925.215 1029.85L946.761 1044.13L955.938 1050.23L973.95 1062.17L986.358 1070.41L1020.72 1093.2L1023.4 1094.97L1040.17 1106.11" stroke="#F0F1F1" stroke-linecap="round" stroke-linejoin="round"/>
<path d="M459.081 1106.11L361.189 996.353L292.926 874.702L267.227 767.747L275.455 675.381L276.496 672.993L310.12 595.692" stroke="#F0F1F1" stroke-linecap="round" stroke-linejoin="round"/>
<path d="M951.903 1042.76L925.161 1025.07L923.025 1023.2L901.902 1004.54L897.207 1000.4L895.414 998.82L882.505 987.422L860.722 968.203L829.775 940.883L821.072 929.526L797.351 898.579L770.465 863.49L759.296 835.801L742.194 793.378L741.258 731.589L763.542 678.085L805.737 633.551L864.889 597.763L938.15 571.182L1023.66 553.638L1118.95 545.486L1223.02 546.765L1333.57 557.74L1450.17 578.728L1570.48 609.912L1694.28 651.861L1818.99 704.56L1832.93 694.099L1845.13 683.019L1856.67 671.78L1865.78 659.696L1873.65 647.257L1878.28 633.696L1881.02 619.581L1879.69 604.148" stroke="#F0F1F1" stroke-linecap="round" stroke-linejoin="round"/>
<path d="M1998.17 625.531L1877.17 574.691L1867.18 570.496L1855.45 552.266L1729.34 510.159L1712.26 504.447L1707.17 502.746L1691.11 485.584L1552.02 450.31L1546.9 449.017L1527.17 433.254L1393.06 409.535L1387.99 408.638L1257.54 393.877L1254.82 393.561L1126.26 387.545L1104.46 376.438L1078.78 365.687L1050.84 355.319L1018.86 345.505L984.631 336.244L946.379 327.789L905.951 320.085L861.673 313.45L815.417 307.79L765.548 303.464L713.925 300.337L659.019 298.834L602.57 298.715L543.141 300.482L482.314 303.859L418.772 309.387L353.884 316.721L286.438 326.509L217.528 338.381L146.008 353.024L72.7605 370.093L-3.34853 390.408L-81.7651 413.651L-163.636 440.786L-248.725 471.627L-338.31 507.336L-381.164 525.831" stroke="#F0F1F1" stroke-linecap="round" stroke-linejoin="round"/>
<path d="M1596.89 522.124L1464.77 491.388L1460.35 490.359L1330.75 469.477L1329.74 469.319L1323.15 456.721L1197.29 446.194L1187.56 434.164L1067.5 433.821L1054.83 422.542L941.617 432.106L926.163 421.777L820.953 441.182L725.592 470.163L643.141 508.576L575.603 557.2L526.868 615.888L501.023 685.591L503.291 765.926L540.344 857.699L570.487 862.105L600.722 867.803L630.14 873.99L659.412 881.206L687.551 888.672L715.189 896.903L775.607 956.845L806.607 987.62L807.332 988.333L887.99 1045.68L944.241 1085.66L945.863 1086.82L981.373 1106.11" stroke="#F0F1F1" stroke-linecap="round" stroke-linejoin="round"/>
<path d="M1998.17 57.2604L1977.13 50.5593L1941.03 40.2963L1849.43 17.594L1835.36 14.1115L1825.84 11.7503L1787.9 3.49247L1694.24 -16.8882L1680.29 -19.9354L1672.78 -21.5711L1632.07 -29.2221L1536.79 -47.136L1525.33 -49.2993L1517.95 -50.6844L1475.15 -57.5044L1378.71 -72.8459L1367.1 -74.6927L1361.34 -75.6029L1314.83 -81.671L1217.23 -94.4006L1207.79 -95.6275L1201.92 -96.3926L1152.34 -101.458L1053.62 -111.55L1043.84 -112.539L1039.35 -113.001L1005.07 -118.185L957.956 -121.403L842.316 -129.345L838.822 -129.582L786.012 -131.745L670.424 -136.455L666.469 -136.626L631.843 -139.937L595.568 -143.196L416.372 -143.855L379.148 -146.19L341.41 -148.538L151.164 -142.391L-52.7165 -130.492L-102.533 -126.271L-267.541 -112.249L-270.403 -112.011L-274.398 -111.668L-275.36 -111.589L-381.164 -99.796" stroke="#F0F1F1" stroke-linecap="round" stroke-linejoin="round"/>
<path d="M1998.17 107.651L1925.91 87.6399L1895.86 79.3162L1877.28 74.1583L1867.99 71.5993L1864.92 70.7418L1861.92 70.0031L1748.73 42.2881L1730.7 37.869L1721.46 35.6132L1718.35 34.8481L1600.65 9.70537L1583.02 5.94582L1573.86 3.98032L1570.68 3.30756L1569.23 3.04373L1433.72 -21.7428L1424.61 -23.4181L1421.35 -24.0117L1414.95 -24.9879L1269.72 -47.1758L1264.96 -47.7562L1115.01 -66.1977L956.255 -81.0512L792.262 -91.5911L621.584 -97.5537L590.782 -93.926L553.874 -89.8234L510.888 -85.1405L461.744 -79.6925L406.562 -73.3079L345.26 -65.7492L277.986 -56.8187L204.633 -46.226L125.319 -33.6678L39.8485 -18.8143L-51.7144 -1.29622L-149.686 19.3615L-254.157 43.6731L-365.605 72.2456L-381.164 76.6383" stroke="#F0F1F1" stroke-linecap="round" stroke-linejoin="round"/>
<path d="M1998.16 706.948L1873.65 647.257L1733.6 591.787L1597.26 548.388L1464.12 516.003L1337.19 494.501L1336.68 494.409L1214.57 482.998L1100.12 481.508L993.53 489.726L897.247 507.389L812.316 534.695L741.64 571.314L687.551 617.669L653.597 673.35L643.734 738.792L662.353 813.27L701.963 875.956L715.189 896.903L741.271 905.214L766.39 914.065L789.412 922.838L810.905 931.966L829.774 940.883L846.52 949.986L858.704 959.114L868.106 968.981L881.081 980.405L883.678 982.7L899.317 994.876L907.611 1002.18L932.928 1026.05L940.575 1032.77L952.799 1040.47L952.996 1040.58L961.172 1046.22L962.807 1047.31L993.53 1067.72L996.457 1069.72L1017.61 1083.71L1019.66 1086.33L1027.83 1092.98L1047.66 1106.11" stroke="#F0F1F1" stroke-linecap="round" stroke-linejoin="round"/>
<path d="M1998.17 641.215L1886.26 592.579L1878.4 589.149L1875.84 588.041L1867.18 570.496L1731.14 523.245L1720.38 519.499L1707.17 502.746L1574.92 467.525L1563.94 464.596L1546.9 449.017L1411.05 423.32L1408.33 422.806L1387.99 408.638L1365.11 394.524L1337.62 380.29L1307.5 366.281L1272.69 352.404L1235.36 338.988L1193.48 326.021L1149.3 313.753L1100.87 302.263L1050.46 291.737L996.195 282.318L940.3 274.087L881.03 267.24L820.414 261.779L756.845 257.954L692.168 255.645L624.88 255.21L556.604 256.423L485.914 259.695L414.183 264.773L340.078 272.108L264.681 281.434L186.713 293.293L106.978 307.408L24.21 324.425L-61.1028 344.159L-150.279 367.376L-243.213 394.009L-341.329 425.035L-381.164 438.715" stroke="#F0F1F1" stroke-linecap="round" stroke-linejoin="round"/>
<path d="M1998.17 386.16L1869.93 349.713L1782.92 314.848L1696.42 283.109L1609.17 254.075L1522.71 227.89L1435.84 204.212L1349.74 183.106L1263.32 164.282L1177.38 147.753L1090.96 133.308L1004.58 120.935L917.344 110.514L829.526 102.018L740.283 95.4359L649.657 90.7662L556.828 88.0488L461.599 87.3496L363.154 88.8271L260.976 92.5998L154.131 98.958L41.7868 108.166L-77.3082 120.684L-204.499 137.015L-341.646 157.91L-381.164 164.902" stroke="#F0F1F1" stroke-linecap="round" stroke-linejoin="round"/>
<path d="M1998.16 690.023L1878.28 633.696L1736.87 578.741L1597.75 535.328L1464.02 503.431L1460.35 490.359L1455.75 477.339L1447.82 463.963L1438.01 450.508L1303.86 431.473L1290.75 418.848L1162.09 410.498L1145.97 398.916L1023.62 400.829L1004.75 390.474L889.573 402.386L868.145 393.442L843.541 385.263L737.355 408.005L710.627 401.726L682.092 396.159L585.216 430.444L554.835 427.225L469.246 472.26L437.283 471.759L370.694 524.247L365.407 528.403L332.178 531.107L279.237 598.225L277.378 600.586L243.345 607.181L211.343 688.322L210.235 691.144L203.523 788.418L231.029 901.243L301.811 1030.03L367.661 1106.11" stroke="#F0F1F1" stroke-linecap="round" stroke-linejoin="round"/>
<path d="M1998.17 538.758L1881.36 495.53L1874.89 493.129L1744.27 452.737L1734.63 449.756L1726.36 447.197L1588.1 412.583L1582.95 411.29L1449.38 385.646L1442.49 384.327L1311.58 366.822L1307.5 366.281L1176.14 356.625L1050.84 355.319L930.319 362.337L817.052 377.639L710.628 401.726L613.857 434.559L527.634 477.115L455.415 529.418L400.008 592.803L366.107 667.321L359.211 754.516L386.031 854.256L455.653 967.807L577.477 1094.36L611.009 1086.46L644.58 1080.25L679.285 1076.25L713.635 1073.51L748.749 1072.53L783.085 1072.48L817.737 1073.83L851.098 1075.82L884.234 1078.9L915.484 1082.43L945.865 1086.82L973.674 1091.46L999.914 1096.81L1022.87 1102.29L1035.94 1106.11" stroke="#F0F1F1" stroke-linecap="round" stroke-linejoin="round"/>
<path d="M1998.17 342.563L1871.49 309.149L1779.75 274.39L1688.14 242.704L1597.54 214.145L1507.14 188.329L1417.52 165.218L1327.9 144.521L1238.62 126.198L1148.95 110.052L1059.03 96.0164L968.136 84.0122L876.217 73.9999L782.61 65.9796L687.039 59.9512L588.83 55.9937L487.497 54.2129L382.26 54.7405L272.355 57.8141L156.807 63.7107L34.4291 72.8259L-96.1773 85.648L-236.871 102.889L-381.164 124.14" stroke="#F0F1F1" stroke-linecap="round" stroke-linejoin="round"/>
<path d="M1998.17 657.164L1883.67 605.928L1879.69 604.148L1875.84 588.041L1733 536.726L1728.84 535.236L1720.38 519.499L1584.6 481.824L1576.45 479.555L1563.94 464.596L1432.65 438.345L1424.31 436.683L1408.33 422.806L1278.12 406.686L1273.88 406.158L1254.82 393.561L1231.62 381.029L1206.05 368.708L1176.14 356.625L1143.81 344.937L1107.13 333.738L1068.12 323.132L1024.93 313.304L979.607 304.308L930.398 296.38L879.316 289.52L824.713 284.006L768.528 279.759L709.191 277.147L648.496 275.986L585.006 276.698L520.29 279.02L453.002 283.452L384.528 289.692L313.561 298.293L241.237 308.912L166.314 322.182L89.6384 337.788L10.022 356.467L-72.0207 377.955L-157.742 403.098L-246.932 431.816L-340.973 465.137L-381.164 480.571" stroke="#F0F1F1" stroke-linecap="round" stroke-linejoin="round"/>
<path d="M1998.16 673.415L1881.02 619.581L1740.06 566.051L1736.84 564.824L1603.28 524.076L1596.89 522.124L1592.67 508.312L1586.57 494.264L1576.45 479.555L1446.9 452.368L1438.01 450.508L1424.31 436.683L1292.89 419.126L1290.75 418.849L1273.87 406.158L1145.97 398.916L1126.26 387.545L1004.75 390.474L982.48 380.607L958.218 371.149L843.54 385.263L817.049 377.639L787.17 370.964L682.092 396.159L650.472 391.833L554.835 427.225L521.698 425.537L437.282 471.759L402.907 473.118L332.178 531.107L296.945 536.08L244.623 605.467L243.344 607.182L207.808 616.521L176.149 702.595L171.125 803.245L200.226 919.091L273.909 1052.52L319.875 1106.11" stroke="#F0F1F1" stroke-linecap="round" stroke-linejoin="round"/>
<path d="M1329.75 469.319L1204.4 458.344L1086.7 457.196L1077.62 445.416L966.579 454.122L954.633 442.989L851.519 461.47L836.777 451.141L743.078 479.463L725.594 470.163L707.028 461.325L622.968 500.516L601.712 493.05L531.313 542.94L507.473 537.162L482.064 532.835L427.514 594.769L394.562 668.403L388.773 753.685L417.229 851.934L487.72 962.649L611.009 1086.46L638.079 1106.11" stroke="#F0F1F1" stroke-linecap="round" stroke-linejoin="round"/>
<path d="M857.269 959.444L846.522 949.986L841.525 943.561L837.846 938.839L826.401 924.157L809.457 902.431L786.882 873.449L773.367 841.064L758.098 804.445L742.195 793.378L724.922 782.429L706.092 771.229L686.3 760.32L665.348 749.305L643.736 738.792L621.241 728.344L598.311 718.609L574.682 709.124L550.683 700.59L526.065 692.49L501.025 685.591L475.339 679.338L449.139 674.537L422.187 670.606L394.562 668.403L366.107 667.321L336.821 668.284L306.599 670.645L275.454 675.381L243.307 681.871L210.237 691.145L176.151 702.595L141.195 717.356L105.317 734.808L68.7653 756.204L31.4492 780.991" stroke="#F0F1F1" stroke-linecap="round" stroke-linejoin="round"/>
<path d="M1998.17 497.641L1892.67 460.797L1883.25 457.512L1748.19 417.727L1737.27 414.522L1603.68 382.309L1596.21 380.501L1466.72 356.163L1457.65 354.448L1330.04 337.26L1324.12 336.469L1193.48 326.021L1068.12 323.132L946.379 327.789L830.633 339.977L719.964 360.173L616.943 388.377L580.299 386.398L541.757 385.501L500.129 386.345L456.668 388.495L410.28 392.69L362.125 398.455L311.214 406.581L258.655 416.606L203.512 429.375L146.733 444.413L87.5155 462.657L26.623 483.645L-36.722 508.431L-101.953 536.621L-169.82 569.441L-240.035 606.575L-313.349 649.552L-381.164 692.741" stroke="#F0F1F1" stroke-linecap="round" stroke-linejoin="round"/>
<path d="M1998.17 44.3592L1893.5 17.1323L1883.21 14.4544L1830.53 -0.54414L1717.52 -25.6737L1702.16 -29.0903L1694.73 -30.7392L1574.07 -54.3121L1563.69 -56.3436L1556 -57.8342L1431.11 -78.9536L1419.61 -80.9059L1414.9 -81.6974L1282.88 -100.535L1275.8 -101.551L1270.38 -102.329L1134.26 -118.251L1125.64 -119.267L1122.79 -119.596L979.12 -132.695L974.544 -133.118L970.72 -133.461L929.501 -139.41L776.4 -148.512L773.551 -148.683L733.031 -153.564L573.627 -158.181L571.583 -158.234L531.524 -162.165L362.521 -162.099L322.581 -165.212L281.862 -168.299L241.5 -171.438L200.295 -174.538L159.365 -177.718L117.395 -180.857L75.4768 -184.063L32.227 -187.202L-11.2996 -190.381L-56.5668 -193.468L-102.599 -196.555L-150.859 -199.497L-200.478 -202.385L-252.918 -205.063L-307.468 -207.609L-365.552 -209.878L-381.164 -210.406" stroke="#F0F1F1" stroke-linecap="round" stroke-linejoin="round"/>
<path d="M1210.51 470.611L1093.75 469.266L985.792 477.524L976.536 465.717L966.581 454.122L864.377 472.419L851.52 461.47L758.824 489.594L743.079 479.463L661.775 517.652L643.144 508.576L622.969 500.516L554.112 549.456L503.386 609.121L475.34 679.338L475.353 761.138L505.456 842.806L509.597 854.031L574.669 942.677L586.378 958.612L690.138 1052.28L713.635 1073.51L763.043 1106.11" stroke="#F0F1F1" stroke-linecap="round" stroke-linejoin="round"/>
<path d="M1998.17 283.307L1887.46 256.634L1790.34 222.06L1694.16 190.757L1598.43 162.435L1503.14 136.897L1407.78 113.957L1312.18 93.4574L1215.9 75.2797L1118.59 59.3577L1019.81 45.6123L919.084 34.0567L815.918 24.704L709.666 17.6071L599.748 12.8978L485.281 10.7344L365.435 11.3544L238.982 15.0875L104.697 22.3428L-39.2933 33.7269L-195.058 50.0051L-365.605 72.2457L-381.164 74.6861" stroke="#F0F1F1" stroke-linecap="round" stroke-linejoin="round"/>
<path d="M1998.17 142.477L1889.96 109.709L1882.09 107.572L1759.08 74.2112L1751.58 72.4172L1627.09 42.4992L1620.07 41.0218L1493.69 14.4675L1487.04 13.2671L1358.25 -10.0024L1352.1 -10.939L1220.3 -30.9371L1202.05 -33.1797L1079.06 -48.3101L933.734 -62.0687L783.283 -72.0678L626.502 -78.0567L461.744 -79.6924L287.084 -76.4605L283.432 -76.289L99.7916 -67.6091L96.4687 -67.3585L-103.588 -52.0961H-103.64L-106.845 -51.7531L-323.924 -28.8001L-327.774 -28.4044L-328.183 -28.3516L-381.164 -15.9385" stroke="#F0F1F1" stroke-linecap="round" stroke-linejoin="round"/>
<path d="M1998.17 50.9547L1917.02 29.7958L1889.63 22.6593L1867.85 16.5649L1853.41 11.8687L1842.37 9.09855L1830.19 6.39431L1719.38 -17.1127L1613.24 -37.4538L1599.85 -38.918L1499.4 -55.8557L1486.84 -58.1246L1480.55 -59.2591L1443.84 -64.8522L1341.3 -80.484L1331.46 -81.9746L1325.05 -82.9508L1286.48 -89.0848L1247.36 -97.7648L1224.65 -100.298L1104.86 -113.621L1095.16 -113.344L981.744 -122.248L972.843 -123.053L969.283 -123.369L929.039 -125.902L807.597 -133.54L803.483 -133.804L758.981 -135.387L634.308 -139.845L631.843 -139.938L452.145 -141.441L262.835 -137.893L60.4317 -128.514L-17.6684 -122.736L-152.652 -112.763L-157.505 -112.407L-158.309 -112.341L-158.586 -112.315L-343.373 -93.4907L-362.084 -90.206L-381.164 -86.3805" stroke="#F0F1F1" stroke-linecap="round" stroke-linejoin="round"/>
<path d="M1086.7 457.196L976.533 465.717L876.465 483.658L864.374 472.419L773.747 500.081L696.122 537.571L634.821 584.638L592.916 641.954L574.68 709.124L585.281 786.742L622.663 859.453L630.14 873.99L697.098 949.036L716.626 970.933L812.619 1045.81L850.159 1075.09L851.096 1075.82L903.009 1106.11" stroke="#F0F1F1" stroke-linecap="round" stroke-linejoin="round"/>
<path d="M1998.17 123.494L1898.03 94.1166L1884.38 90.5417L1762.63 58.711L1758.92 57.748L1758.89 57.7348L1746.24 54.8327L1623.03 26.4713L1618.95 25.5347L1618.7 25.482L1607.12 23.1735L1481.86 -1.83737L1477.49 -2.70799L1476.98 -2.81352L1466.43 -4.60755L1350.63 -24.2627L1338.63 -26.2941L1333.93 -27.0988L1333.19 -27.2175L1323.71 -28.5499L1192.65 -46.9254L1187.62 -47.6378L1186.63 -47.7697L1178.13 -48.7195L1036.52 -64.4436L881.874 -77.16L721.507 -85.708L553.874 -89.8237L377.091 -89.0586L376.603 -89.0323L190.959 -82.8191L188.612 -82.74L147.445 -75.7354L99.7916 -67.6095L45.5975 -58.1645L-15.3081 -47.1629L-82.965 -34.3145L-157.624 -19.3423L-239.376 -1.86375L-328.592 18.5565L-381.164 31.4972" stroke="#F0F1F1" stroke-linecap="round" stroke-linejoin="round"/>
<path d="M1998.17 415.023L1899.14 384.511L1817.69 349.343L1734.22 316.576L1650.93 286.645L1566.38 259.167L1482.39 234.381L1397.63 211.955L1313.47 191.983L1228.77 174.228L1144.52 158.689L1059.65 145.207L974.887 133.757L889.244 124.246L803.154 116.634L715.705 110.909L627.096 107.058L536.443 105.145L443.693 105.198L347.95 107.374L248.898 111.793L145.547 118.706L37.2377 128.348L-77.2555 141.157L-199.054 157.58L-329.897 178.317L-381.164 187.683" stroke="#F0F1F1" stroke-linecap="round" stroke-linejoin="round"/>
<path d="M1998.17 59.8193L1921.75 39.7421L1898.88 33.7268L1851.46 22.7384L1781.59 6.52624L1763.85 2.42372L1750.16 -0.7554L1742.65 -2.49666L1692.31 -12.6276L1621.76 -26.8215L1604.45 -30.3172L1592.42 -32.7312L1585.16 -34.1955L1532.31 -43.258L1444.24 -58.3489L1432.4 -60.3803L1426.25 -61.4357L1369.7 -69.456L1281.49 -81.9878L1271.07 -83.4652L1265 -84.3227L1205.05 -91.0898L1116.46 -101.089L1106.07 -102.263L1100.96 -102.843L1071.32 -107.883L1011.73 -112.592L917.634 -120.045L908.166 -120.797L903.815 -121.14L838.663 -124.451L735.299 -129.688L730.737 -129.925L699.697 -133.289L634.19 -134.463L519.749 -136.508L330.716 -134.608L129.447 -126.918L-87.3427 -112.5L-196.799 -102.078L-294.032 -92.8311L-307.508 -91.5515L-317.766 -90.5622L-322.526 -90.1137L-325.256 -89.863L-381.164 -82.9244" stroke="#F0F1F1" stroke-linecap="round" stroke-linejoin="round"/>
<path d="M985.789 477.524L887.092 495.424L800.329 522.691L727.081 559.706L670.58 606.126L633.949 662.506L621.238 728.344L637.444 804.049L662.352 813.27L686.68 823.124L724.985 880.731L741.27 905.214L798.562 960.064L834.151 994.124L835.351 995.285L906.779 1044.95L969.399 1088.49L973.671 1091.46L1001.15 1106.11" stroke="#F0F1F1" stroke-linecap="round" stroke-linejoin="round"/>
<path d="M1998.17 101.425L1943.92 86.0834L1922.95 80.1473L1911.55 76.9154L1907.3 75.7282L1904.89 75.1214L1773.17 42.1562L1762.07 39.3728L1757.85 38.3175L1622.55 8.72925L1611.69 6.3548L1607.48 5.4314L1459.84 -22.2704L1455.64 -23.0619L1301.7 -47.2681L1144.88 -67.2398L984.209 -82.9243L956.255 -81.0511L922.13 -79.178L881.874 -77.1597L835.565 -74.838L783.283 -72.0678L725.199 -68.6381L661.405 -64.3377L592.127 -58.9424L517.402 -52.2016L437.496 -43.8515L352.341 -33.5754L262.176 -21.07L166.829 -5.96591L66.4181 12.1326L-39.2933 33.7269L-150.358 59.3445L-267.159 89.6582L-381.164 122.887" stroke="#F0F1F1" stroke-linecap="round" stroke-linejoin="round"/>
<path d="M1998.17 470.585L1908.99 440.021L1842.86 407.24L1772.54 375.607L1700.85 346.006L1625.97 318.027L1550.48 292.277L1472.69 268.427L1394.8 246.833L1315.25 227.27L1235.9 209.871L1155.3 194.503L1074.94 181.193L993.505 169.848L912.148 160.443L829.657 152.937L746.876 147.291L662.698 143.532L577.662 141.593L490.727 141.606L402.171 143.518L310.951 147.529L217.08 153.676L119.478 162.263L17.8017 173.436L-89.1623 187.617L-202.179 205.162L-322.816 226.716L-381.164 238.509" stroke="#F0F1F1" stroke-linecap="round" stroke-linejoin="round"/>
<path d="M1998.17 553.202L1918.94 522.005L1910.6 518.72L1874.89 493.129L1833.12 466.773L1787.98 440.72L1737.27 414.522L1683.8 389.142L1625.45 364.236L1565.01 340.584L1500.52 317.921L1434.59 296.842L1365.39 277.147L1295.36 259.207L1222.73 242.915L1149.69 228.471L1074.6 215.82L999.32 205.003L922.328 196.06L845.177 188.923L766.444 183.673L687.368 180.217L606.657 178.687L525.195 178.95L441.794 181.219L357.048 185.375L269.797 191.706L180.357 200.162L87.5287 211.098L-8.68882 224.566L-109.587 241.055L-215.549 260.776L-328.157 284.442L-381.164 296.842" stroke="#F0F1F1" stroke-linecap="round" stroke-linejoin="round"/>
<path d="M1998.16 341.204L1911.91 305.165L1779.75 274.39L1649.69 248.587L1522.71 227.89L1397.62 211.955L1275.6 200.888L1155.29 194.503L1038.01 192.88L922.326 196.059L809.718 204.08L698.838 217.232L591.268 235.581L495.459 257.518L485.912 259.695L392.042 287.476L384.526 289.692L294.624 323.435L286.436 326.509L199.857 367.402L193.634 370.344L112.962 418.558L106.211 422.595L31.4602 479.924L26.6209 483.644L-38.8207 550.379L-43.8313 555.484L-98.5792 634.276L-101.783 638.88L-143.86 736.589L-164.944 849.955L-210.224 901.256L-195.14 1043.38L-226.746 1106.11" stroke="#F0F1F1" stroke-linecap="round" stroke-linejoin="round"/>
<path d="M876.465 483.658L787.315 511.267L712.076 548.282L652.964 595.257L613.697 651.821L598.309 718.609L611.508 794.961L650.525 865.205L659.412 881.206L724.564 951.199L747.692 976.038L840.573 1046.01L882.61 1077.69L884.232 1078.9L932.044 1106.11" stroke="#F0F1F1" stroke-linecap="round" stroke-linejoin="round"/>
<path d="M1998.17 39.9533L1921.05 19.4275L1908.57 16.1165L1853.4 -0.0165501L1746.67 -24.4338L1725.03 -29.3937L1613.3 -52.096L1594.16 -55.9875L1474.53 -77.2256L1466.26 -78.6898L1459.85 -79.8243L1336.07 -98.7144L1326.21 -100.218L1322.76 -100.746L1191.39 -117.486L1186.16 -118.145L1181.71 -118.713L1046.2 -132.656L1038.98 -133.408L1037.15 -133.592L890.616 -145.029L887.557 -145.267L845.916 -151.018L694.08 -158.247L691.838 -158.353L651.028 -163.101L490.78 -166.043L450.418 -169.921L281.862 -168.299L103.075 -162.481L-89.8216 -151.678L-299.266 -135.123L-381.164 -126.72" stroke="#F0F1F1" stroke-linecap="round" stroke-linejoin="round"/>
<path d="M1998.16 935.132L1926.37 880.994L1902.39 886.258L1808.26 826.092L1788.37 833.413L1694.32 782.745L1598.01 739.821L1500.53 704.877L1403.79 678.256L1308.87 660.026L1217.58 650.264L1131.08 648.998L1051.22 656.135L979.394 671.727L917.552 695.564L867.498 727.724L831.395 767.931L817.22 802.414L811.537 816.185L811.273 829.113" stroke="#F0F1F1" stroke-linecap="round" stroke-linejoin="round"/>
<path d="M1998.17 328.211L1911.92 305.165L1818.02 269.14L1724.53 236.372L1632.11 206.81L1540.02 180.072L1448.67 156.077L1357.36 134.562L1266.23 115.434L1174.68 98.5359L1082.63 83.788L989.51 71.1111L895.059 60.4788L798.737 51.8781L700.093 45.3615L598.535 40.982L493.404 38.8845L383.961 39.2275L269.27 42.2615L148.329 48.3032L19.7532 57.801L-118.026 71.3222L-267.159 89.6581L-381.164 106.569" stroke="#F0F1F1" stroke-linecap="round" stroke-linejoin="round"/>
<path d="M1998.17 443.055L1914.11 415.458L1838.27 380.541L1761.48 348.064L1682.06 317.605L1602.44 289.679L1521.03 263.929L1439.87 240.673L1357.52 219.619L1275.6 200.888L1192.8 184.28L1110.39 169.822L1027.14 157.37L944.032 146.909L859.932 138.374L775.49 131.712L689.702 126.924L602.926 123.995L514.198 122.993L423.65 123.916L330.294 126.95L233.971 132.161L133.653 139.812L28.8778 150.114L-81.62 163.49L-198.737 180.322L-324.122 201.297L-381.164 212.193" stroke="#F0F1F1" stroke-linecap="round" stroke-linejoin="round"/>
<path d="M758.823 489.594L679.563 527.176L615.862 574.876L571.544 632.417L550.684 700.59L558.266 778.867L594.579 854.942L600.724 867.803L667.194 946.068L684.336 966.25L784.601 1047.1L817.738 1073.83L871.404 1106.11" stroke="#F0F1F1" stroke-linecap="round" stroke-linejoin="round"/>
<path d="M1998.17 384.577L1918.65 349.106L1782.92 314.848L1650.93 286.645L1521.03 263.929L1394.8 246.833L1270.46 234.987L1149.69 228.471L1030.72 227.178L915.3 231.188L801.835 240.66L692.168 255.645L593.933 274.944L585.006 276.698L488.947 302.105L482.314 303.859L390.817 335.479L383.381 338.051L295.668 377.085L290.394 379.433L209.38 425.998L203.512 429.375L129.328 485.254L125.412 488.209L61.7898 553.611L57.6758 557.846L6.31675 635.358L3.94328 638.946L-44.0798 667.07L-93.3291 699.112L-143.857 736.589L-195.586 779.144L-248.422 828.572L-302.497 884.807L-357.667 950.104L-381.164 981.157" stroke="#F0F1F1" stroke-linecap="round" stroke-linejoin="round"/>
<path d="M1998.16 280.392L1917.89 249.155L1790.34 222.06L1664.48 199.041L1540.02 180.072L1417.52 165.218L1296.42 154.401L1177.38 147.753L1059.64 145.207L944.031 146.909L829.656 152.937L717.497 163.437L606.656 178.687L507.749 197.062L498.281 198.817L401.51 222.007L391.581 224.382L296.26 253.073L287.913 255.592L195.586 289.982L186.712 293.293L96.8763 334.477L89.6373 337.788L-3.3497 390.408L-84.1924 447.395L-90.2052 451.642L-163.783 517.771L-170.046 523.403L-240.037 606.575L-297.685 703.954L-338.693 817.109L-357.668 950.104L-347.317 1105.75L-347.488 1106.11" stroke="#F0F1F1" stroke-linecap="round" stroke-linejoin="round"/>
<path d="M1998.16 1013.95L1934.42 956.7L1906.56 957.927L1830.17 899.726L1806.28 903.354L1727.98 852.739L1707.77 858.094L1628.5 814.879L1611.53 821.356L1594.32 827.082L1576.66 831.87L1558.74 835.801L1540.14 838.664L1521.2 840.603L1501.31 841.434L1481 841.341L1459.4 840.18L1437.2 838.162L1413.36 835.234L1388.63 831.593L1361.86 827.293L1333.87 822.517L1303.4 817.425L1271.32 812.202L1236.35 807.136L1199.35 802.414L1159.13 798.43L1116.51 795.435L1070.48 793.958L1021.77 794.288L969.637 797.124L914.77 802.849L856.713 812.334L815.375 821.739" stroke="#F0F1F1" stroke-linecap="round" stroke-linejoin="round"/>
<path d="M1998.17 372.23L1918.65 349.106L1828.56 312.381L1739.29 279.034L1649.69 248.588L1561.07 221.15L1472.35 196.363L1384.45 174.202L1296.42 154.402L1208.84 136.936L1120.87 121.608L1032.79 108.364L943.834 97.1247L854.091 87.8248L762.831 80.4772L669.897 75.0687L574.589 71.6785L476.526 70.3594L374.929 71.2828L269.178 74.607L158.297 80.6091L41.2989 89.6451L-83.1364 102.151L-216.578 118.732L-361.056 140.221L-381.164 143.717" stroke="#F0F1F1" stroke-linecap="round" stroke-linejoin="round"/>
<path d="M1998.17 268.52L1917.89 249.155L1818.82 213.816L1720.52 181.787L1622.64 152.779L1524.94 126.594L1427.08 103.048L1328.72 81.9943L1229.48 63.3153L1128.92 46.9449L1026.64 32.8565L922.051 21.037L814.691 11.5129L703.811 4.41591L588.817 -0.174684L468.68 -2.02148L342.518 -0.847449L208.905 3.70357L66.4181 12.1329L-87.1054 25.1528L-254.157 43.6734L-381.164 61.1124" stroke="#F0F1F1" stroke-linecap="round" stroke-linejoin="round"/>
<path d="M661.776 517.652L596.255 565.51L549.537 623.895L526.066 692.49L531.103 772.113L565.149 849.903L570.49 862.105L637.395 944.617L652.11 962.755L753.51 1047.71L783.086 1072.48L837.385 1106.11" stroke="#F0F1F1" stroke-linecap="round" stroke-linejoin="round"/>
<path d="M1998.17 1075.03L1944.64 1017.96L1944.29 1017.58L1912.96 1014.45L1851.06 958.81L1823.52 958.401L1758.35 908.709L1734.33 910.345L1666.75 866.616L1594.32 827.081L1517.96 792.388L1503.48 798.614L1488.39 803.865L1472.93 808.178L1456.6 811.41L1439.84 813.666L1421.94 814.84L1403.51 815.064L1383.6 814.286L1362.94 812.65L1340.44 810.21L1316.89 807.096L1291.1 803.429L1263.87 799.366L1233.95 795.132L1202.19 790.897L1167.34 786.966L1130.19 783.55L1089.66 781.109L1046.46 779.843L999.664 780.384L949.993 783.022L896.735 788.523L840.59 797.295L831.148 799.353" stroke="#F0F1F1" stroke-linecap="round" stroke-linejoin="round"/>
<path d="M1998.17 62.2599L1952.34 49.8996L1937.96 46.0214L1929.9 43.8448L1879.48 31.8406L1811.18 15.5889L1792.97 11.2489L1780.04 8.17533L1772.3 6.32853L1719.35 -4.64668L1650.19 -18.9725L1633.26 -22.4814L1620.69 -25.0933L1613.93 -26.4916L1557.51 -36.4642L1488.4 -48.6926L1471.94 -51.6079L1460.56 -53.613L1454.02 -54.7738L1394.42 -63.5461L1309.12 -76.0911L1297.98 -77.7268L1292.22 -78.5711L1228.39 -86.0901L1143.32 -96.1025L1133.17 -97.2897L1127.53 -97.9625L1100.96 -102.843L1036.23 -108.278L947.131 -115.758L937.966 -116.536L932.811 -116.971L863.321 -120.81L763.992 -126.311L759.653 -126.548L730.737 -129.925L659.968 -131.508L550.894 -133.962L519.749 -136.508L486.89 -139.014L297.448 -136.27L262.835 -137.893L226.561 -139.423L189.522 -140.94L-14.1214 -129.833L-73.3261 -125.031L-220.955 -113.027L-229.975 -112.301L-232.19 -112.117L-235.078 -111.893L-236.08 -111.774L-381.164 -96.0366" stroke="#F0F1F1" stroke-linecap="round" stroke-linejoin="round"/>
<path d="M1998.17 511.65L1935.04 487.813L1883.25 457.512L1825.94 427.304L1766.11 398.283L1701.64 370.027L1635.43 343.394L1565.56 318.053L1494.67 294.586L1420.95 272.767L1346.77 252.967L1270.46 234.987L1194.05 219.026L1116.02 204.977L1038.01 192.881L958.629 182.71L879.236 174.413L798.512 168.015L717.498 163.437L634.968 160.76L551.685 159.902L466.491 160.997L379.834 163.991L290.618 169.11L199.015 176.352L103.853 186.034L5.01133 198.263L-98.8144 213.499L-208.139 231.993L-324.57 254.458L-381.164 266.713" stroke="#F0F1F1" stroke-linecap="round" stroke-linejoin="round"/>
<path d="M1998.17 153.755L1934.57 133.348L1924.56 130.459L1808.28 96.8604L1798.66 94.3673L1681.11 64.0535L1671.96 61.9693L1552.75 34.8083L1544 33.0803L1422.65 9.00598L1414.4 7.60769L1290.4 -13.3929L1282.54 -14.501L1155.27 -32.4413L1147.89 -33.2723L1016.66 -48.0598L873.619 -60.1959L725.199 -68.6384L570.027 -73.1366L406.562 -73.3081L232.64 -68.5724L227.339 -68.2822L45.5975 -58.1644L40.4155 -57.7291L-158.349 -40.9233L-163.293 -40.3693L-381.164 -15.5695" stroke="#F0F1F1" stroke-linecap="round" stroke-linejoin="round"/>
<path d="M1998.17 53.2103L1946.03 39.1483L1934.79 36.1275L1905.2 29.0306L1809.13 6.01158L1793.64 2.30482L1785.04 0.246968L1741.79 -11.467L1719.38 -17.1129L1704.98 -21.4396L1697.09 -23.1941L1682.24 -26.0698L1567.46 -47.1496L1458.41 -64.9183L1448 -66.7256L1440.9 -67.9524L1412.71 -72.0549L1303.11 -88.0164L1292.11 -89.6126L1286.48 -89.0849L1181.97 -100.733L1171.67 -102.013L1166.99 -102.606L1123.47 -106.788L1010.08 -117.697L1005.07 -118.185L969.283 -123.369L931.795 -128.54L900.835 -130.308L769.49 -137.854L767.038 -137.985L729.168 -142.128L690.784 -146.243L651.358 -150.28L481.695 -152.786L302.551 -150.821L112.49 -143.895L-92.5775 -131.1L-129.511 -127.841L-310.409 -111.893L-315.498 -111.444L-316.078 -111.392L-317.608 -111.207L-381.164 -103.925" stroke="#F0F1F1" stroke-linecap="round" stroke-linejoin="round"/>
<path d="M1998.17 46.773L1947.74 33.1463L1934.82 29.6638L1819.91 1.88282L1803.07 -2.18012L1794.09 -4.3567L1791.53 -4.88436L1671.87 -30.4096L1659.64 -33.0215L1650.77 -34.9079L1647.12 -35.5939L1524.41 -58.3753L1511.54 -60.7762L1505.55 -61.8842L1498.26 -63.0319L1372.73 -82.8981L1363.83 -84.3095L1357.46 -85.3121L1347.96 -86.5653L1220.67 -103.292L1210.7 -104.598L1206.75 -105.126L1192.67 -106.59L1063.73 -118.766L942.357 -127.656L936.147 -128.171L931.795 -128.54L893.49 -133.672L870.876 -134.833L732.556 -141.956L729.642 -140.624L598.812 -143.104L595.568 -143.196L558.529 -146.441L520.237 -149.62L481.695 -152.786L442.177 -155.886L402.751 -159.012L362.521 -162.099L183.97 -157.746L-7.73941 -148.406L-214.943 -133.302L-381.164 -117.077" stroke="#F0F1F1" stroke-linecap="round" stroke-linejoin="round"/>
<path d="M1998.17 145.088L1934.57 133.348L1844.27 117.822L1749.86 102.968L1652.14 89.1963L1551.48 76.8096L1448.52 66.1378L1343.51 57.4315L1236.92 50.9677L1128.92 46.9444L1019.81 45.6121L909.709 47.1818L798.737 51.8779L687.039 59.9511L574.589 71.6782L461.599 87.3495L347.95 107.374L245.232 129.707L233.971 132.161L119.478 162.263L15.1908 195.057L5.01133 198.262L-99.421 237.256L-109.587 241.055L-214.297 287.357L-223.461 291.407L-327.313 345.9L-336.569 350.755L-381.164 378.667" stroke="#F0F1F1" stroke-linecap="round" stroke-linejoin="round"/>
<path d="M801.216 1106.11L748.749 1072.53L722.984 1050.16L619.04 959.932L605.775 942.691L540.346 857.699L509.597 854.032L479.045 851.987L448.006 850.971L417.23 851.934L386.032 854.256L355.124 858.939L323.847 865.403L292.926 874.702L261.742 886.271L231.032 901.244L200.229 919.091L170.179 941.081L140.339 966.725L111.699 997.461" stroke="#F0F1F1" stroke-linecap="round" stroke-linejoin="round"/>
<path d="M1936.97 1106.11L1899.1 1057.84L1898.6 1057.2L1864.75 1049.11L1820.84 1002.54L1820.09 1001.74L1789.34 996.287L1758.33 990.034L1727.34 983.201L1695.71 975.55L1663.91 967.372L1631.11 958.454L1597.85 949.141L1563.19 939.274L1527.74 929.236L1490.43 918.959L1452.03 908.828L1411.36 898.895L1369.25 889.53L1324.58 880.968L1278.16 873.542L1229.02 867.671L1177.97 863.675L1124.24 862.157L1068.62 863.503L1010.66 868.463L951.124 877.539L889.955 891.667L829.062 911.203" stroke="#F0F1F1" stroke-linecap="round" stroke-linejoin="round"/>
<path d="M1998.17 567.278L1942.57 544.087L1910.6 518.72L1780.43 475.69L1761.86 469.556L1726.36 447.197L1687.62 424.969L1643.35 402.465L1596.21 380.501L1544.02 358.802L1489.49 338.065L1430.62 318.067L1369.99 299.375L1305.68 281.83L1240.19 265.816L1171.69 251.279L1102.42 238.391L1030.72 227.178L958.536 217.707L884.313 210.016L809.72 204.08L733.308 200.03L656.421 197.722L577.728 197.366L498.283 198.817L416.82 202.313L334.065 207.721L248.845 215.359L161.581 225.12L71.0463 237.441L-22.5999 252.295L-120.69 270.235L-223.461 291.407L-332.455 316.576L-381.164 328.989" stroke="#F0F1F1" stroke-linecap="round" stroke-linejoin="round"/>
<path d="M1998.17 911.335L1950.67 875.652L1926.37 880.995L1828.42 818.613L1808.26 826.092L1710.61 773.683L1694.32 782.745L1678.16 791.544L1661.7 799.855L1572.34 759.661L1559.17 768.855L1545.8 777.429L1460.92 746.364L1450.15 755.202L1438.97 763.275L1358.37 740.203L1349.21 748.026L1270.44 731.748L1192.36 722.026L1186.18 729.202L1179.44 735.428L1171.79 740.718L1163.6 745.005L1154.35 748.356L1144.54 750.73L1133.43 752.273L1121.74 754.569L1105.43 753.817L1099.42 753.5L1092.51 752.498L1078.9 750.532L1065.32 749.582L1053.4 748.738L1046.88 748.461L1043.56 748.488L1039.39 748.342L1027.51 748.474L1012.82 748.896L1005.89 748.765L997.172 748.369L989.418 748.87L989.313 748.883L987.243 749.134L964.51 752.023L943.808 754.503L942.74 753.975L935.277 755.769L929.686 756.165L913.494 759.159L909.973 760.096L906.519 761.033L903.42 761.864L900.77 761.956L894.137 765.003L892.818 766.111L891.421 766.586L883.602 768.512L878.34 768.182L870.482 770.715L866.196 771.032L854.777 776.968L847.525 783.392L846.628 785.608L835.842 793.642L830.054 797.77L827.878 797.981L826.599 800.198L825.544 803.561L825.214 803.957L824.964 804.274L823.751 806.477L815.114 821.792L811.725 828.282L811.33 829.047L811.277 829.219L811.211 831.989" stroke="#F0F1F1" stroke-linecap="round" stroke-linejoin="round"/>
<path d="M1998.17 95.4626L1960.49 84.6457L1947.45 80.8993L1942.16 79.3823L1795.27 42.0243L1790.14 40.7184L1642.4 7.85875L1637.33 6.72429L1483.24 -22.7452L1327.21 -47.8088L1301.7 -47.2679L1269.72 -47.1756L1231.33 -47.3867L1186.63 -47.7692L1135.81 -48.1386L1079.06 -48.3101L1016.66 -48.0594L948.818 -47.1624L875.887 -45.3816L797.998 -42.4399L715.533 -38.1L628.546 -32.0715L537.352 -24.0775L441.926 -13.7751L342.518 -0.847545L238.982 15.0876L131.464 34.4657L19.7532 57.8012L-96.1773 85.6482L-216.578 118.732L-341.646 157.91L-381.164 171.986" stroke="#F0F1F1" stroke-linecap="round" stroke-linejoin="round"/>
<path d="M807.137 855.074L805.107 797.625L798.817 787.455L790.681 776.968L780.634 765.926L769.004 754.753L755.752 743.158L741.26 731.589L725.464 719.717L708.757 708.043L691.062 696.223L672.694 684.786L653.601 673.349L633.954 662.506L613.7 651.821L592.919 641.954L571.545 632.417L549.537 623.895L526.871 615.888L503.387 609.121L479.098 603.053L453.795 598.462L427.515 594.769L400.009 592.803L371.383 591.959L341.358 593.133L310.121 595.692" stroke="#F0F1F1" stroke-linecap="round" stroke-linejoin="round"/>
<path d="M1998.17 261.396L1944.62 240.62L1818.82 213.815L1694.16 190.757L1570.64 171.471L1448.67 156.077L1327.9 144.521L1208.84 136.936L1090.96 133.308L974.887 133.757L859.932 138.374L746.876 147.291L634.968 160.76L535.045 177.315L525.195 178.95L427.013 200.109L416.82 202.312L319.772 228.695L311.03 231.083L216.447 262.913L207.257 266L114.652 304.242L106.978 307.408L18.1445 352.351L10.022 356.467L-75.238 409.588L-81.7651 413.651L-160.986 475.387L-167.829 480.729L-240.471 553.321L-245.653 558.505L-313.349 649.552L-367.2 755.307L-381.164 803.878" stroke="#F0F1F1" stroke-linecap="round" stroke-linejoin="round"/>
<path d="M1998.17 253.495L1944.62 240.62L1843.35 204.634L1742.66 171.959L1642.29 142.344L1541.87 115.605L1441.1 91.5444L1339.56 70.0293L1236.92 50.9678L1132.64 34.2939L1114.66 31.8667L1026.36 19.9813L917.396 8.06951L805.303 -1.41508L689.201 -8.32736L568.458 -12.5354L441.926 -13.7754L308.59 -11.7439L166.829 -5.96609L14.9139 4.12529L-149.686 19.3613L-330.042 40.8764L-381.164 48.3691" stroke="#F0F1F1" stroke-linecap="round" stroke-linejoin="round"/>
<path d="M723.061 1106.11L679.284 1076.25L658.371 1056.69L553.174 958.27L542.23 942.585L479.043 851.987L475.364 841.144L446.816 757.167L449.137 674.537L479.096 603.053L531.312 542.94" stroke="#F0F1F1" stroke-linecap="round" stroke-linejoin="round"/>
<path d="M1998.17 320.678L1949.92 300.364L1818.02 269.14L1688.14 242.704L1561.07 221.149L1435.84 204.212L1313.47 191.983L1192.8 184.28L1074.94 181.193L958.629 182.71L845.177 188.923L733.308 200.03L624.472 216.11L517.56 237.652L422.292 262.65L414.183 264.773L322.33 295.364L313.561 298.293L224.398 335.505L217.529 338.381L133.323 382.414L125.9 386.292L46.4283 438.715L40.8771 442.382L-30.8674 503.458L-36.7219 508.431L-99.9351 580.522L-103.97 585.112L-158.362 674.945L-195.586 779.144L-210.222 901.256L-255.938 959.721L-231.992 1106.11" stroke="#F0F1F1" stroke-linecap="round" stroke-linejoin="round"/>
<path d="M1965.04 1106.11L1932.75 1064.91L1898.6 1057.2L1851.55 1007.24L1850.96 1006.62L1820.09 1001.74L1769.23 956.185L1768.43 955.486L1710.08 911.097L1645.94 869.663L1576.66 831.87L1503.48 798.615L1427.19 770.451L1415.02 776.73L1402.03 782.007L1388.62 786.294L1374.18 789.513L1359.23 791.742L1342.98 792.942L1326.08 793.206L1307.57 792.56L1288.14 791.109L1266.72 788.959L1244.06 786.215L1218.98 783.075L1192.24 779.645L1162.64 776.229L1130.94 772.944L1095.97 770.2L1058.47 768.143L1017.37 767.325L973.383 767.958L925.637 770.715L874.793 775.899L866.406 777.205" stroke="#F0F1F1" stroke-linecap="round" stroke-linejoin="round"/>
<path d="M1998.17 313.371L1949.92 300.364L1854 263.257L1758.72 229.526L1664.48 199.041L1570.64 171.471L1477.43 146.672L1384.23 124.418L1291.03 104.565L1197.29 86.9808L1102.8 71.5996L1007.06 58.3423L909.709 47.1823L810.208 38.1463L708.031 31.2604L602.57 26.6302L493.074 24.3877L378.792 24.7439L258.616 27.9889L131.464 34.4659L-4.27152 44.7024L-150.358 59.3448L-309.354 79.3166L-381.164 90.1994" stroke="#F0F1F1" stroke-linecap="round" stroke-linejoin="round"/>
<path d="M958.204 1106.11L915.482 1082.43L914.546 1081.74L864.664 1045.23L778.388 982.08L751.621 954.563L687.551 888.672L676.567 870.125L637.444 804.049L611.508 794.961L585.281 786.742L558.263 778.867L531.1 772.113L503.291 765.926L475.35 761.138L446.816 757.167L418.097 754.885L388.771 753.685L359.209 754.516L328.973 756.732L298.448 761.362L267.224 767.747L235.71 776.981L203.523 788.418L171.125 803.245L138.187 820.868L105.222 842.542L71.9539 867.737L39.0287 897.906L6.15625 932.586" stroke="#F0F1F1" stroke-linecap="round" stroke-linejoin="round"/>
<path d="M1998.16 987.079L1962.64 955.183L1934.42 956.7L1854.23 895.65L1830.18 899.726L1748.19 846.789L1727.98 852.739L1645.22 807.677L1628.5 814.879L1545.79 777.429L1532.08 785.318L1517.96 792.388L1438.96 763.275L1427.19 770.451L1349.21 748.026L1339.3 754.912L1262.75 738.937L1254.22 745.176L1245.17 750.426L1235.11 754.687L1224.51 757.946L1212.68 760.254L1200.21 761.626L1186.23 762.18L1171.38 761.89L1154.89 762.18L1145.91 761.402L1140.33 760.201L1136.81 759.436L1116.65 757.537L1094.89 755.281L1091.59 754.806L1061.67 749.991L1050.91 748.883L1043.68 749.648L1013.98 749.068L1011.15 748.646L1004.79 748.21L999.068 748.514L996.589 747.617L983.047 748.184L955.33 751.719L952.746 752.049L945.771 753.962L943.226 754.41L941.129 754.793L936.145 755.98L928.919 757.695L926.295 758.315L925.939 758.407L905.395 763.024L901.295 763.13L893.277 765.214L887.159 767.404L871.191 773.841L863.767 777.284L853.799 781.914L850.647 783.853L850.555 783.932L842.459 790.357L837.435 794.354L836.776 794.881L832.069 798.628L831.146 799.353L826.109 803.363L825.238 804.049" stroke="#F0F1F1" stroke-linecap="round" stroke-linejoin="round"/>
<path d="M1998.16 407.728L1955.52 387.334L1869.93 349.713L1751.6 320.81L1734.22 316.576L1602.44 289.679L1472.69 268.427L1346.77 252.967L1222.73 242.915L1102.42 238.391L983.984 239.314L869.333 245.751L756.844 257.953L648.495 275.986L551.223 298.596L543.14 300.482L448.65 329.741L442.874 331.522L353.804 367.521L347.237 370.172L263.098 414.271L258.654 416.606L182.69 468.962L177.732 472.379L110.642 534.998L107.557 537.874L53.5871 611.02L50.4752 615.241L3.94219 638.946L-31.9498 734.122L-75.6083 767.153L-82.465 884.306L-120.625 929.763L-86.6449 1074.84L-71.9558 1106.11" stroke="#F0F1F1" stroke-linecap="round" stroke-linejoin="round"/>
<path d="M681.342 1106.11L644.58 1080.25L520.606 959.8L487.721 962.649L455.653 967.807L423.479 974.693L392.268 984.389L361.189 996.353L331.31 1011.73L301.813 1030.03L273.911 1052.52L246.814 1078.77L225.137 1106.11" stroke="#F0F1F1" stroke-linecap="round" stroke-linejoin="round"/>
<path d="M1998.17 400.869L1955.52 387.334L1833.68 353.762L1817.69 349.343L1698.54 321.457L1682.06 317.605L1550.48 292.277L1420.95 272.767L1295.36 259.207L1171.69 251.279L1051.89 249.049L934.143 252.532L820.414 261.779L709.191 277.147L602.57 298.715L506.761 325.229L499.575 327.221L402.487 362.772L316.871 403.876L311.215 406.581L232.073 456.602L228.433 458.898L159.418 517.995L155.41 521.425L95.6647 594.65L50.4766 615.241L10.8266 705.207L-31.9485 734.122L-44.3827 844.468L-82.4636 884.306L-57.0808 1020.19L-86.6436 1074.84L-100.66 1106.11" stroke="#F0F1F1" stroke-linecap="round" stroke-linejoin="round"/>
<path d="M1998.17 64.6604L1964.28 55.3209L1956.29 53.118L1904.82 40.573L1882.06 35.0194L1835.68 23.7145L1818.34 20.6408L1763.39 9.87667L1756.86 8.45201L1735.08 3.7295L1694.56 -6.25636L1674.56 -11.6912L1658.23 -14.0525L1638.6 -19.329L1580.46 -29.9085L1512.21 -42.3084L1497.07 -43.9968L1434.98 -52.558L1386.22 -60.1563L1341.31 -67.1609L1335.48 -68.0711L1267.9 -76.5663L1201.26 -84.956L1186.44 -86.816L1176.01 -88.1219L1170.35 -88.8343L1098 -95.7993L1017.29 -102.487L1001.81 -105.06L923.686 -110.27L843.885 -114.544L828.497 -116.628L808.89 -119.887L785.748 -123.198L759.653 -126.548L683.571 -128.593L584.096 -131.244L579.613 -131.363L550.894 -133.962L361.861 -132.854L161.317 -125.981L-54.734 -112.368L-169.952 -101.788L-270.93 -92.5279L-281.334 -91.5649L-288.428 -90.9185L-290.92 -90.6943L-381.164 -79.7586" stroke="#F0F1F1" stroke-linecap="round" stroke-linejoin="round"/>
<path d="M1993.73 1106.1L1967.16 1072.16L1912.96 1014.45L1881.85 1010.8L1824.16 958.995L1823.52 958.401L1795.94 957.28L1734.33 910.345L1710.08 911.097L1685.72 911.084L1660.87 910.055L1635.87 908.221L1610.05 905.346L1583.9 901.692L1556.62 897.048L1528.78 891.732L1499.38 885.611L1469.14 878.989L1436.93 871.853L1403.53 864.492L1367.73 856.999L1330.36 849.678L1290.24 842.766L1248.19 836.553L1203.12 831.421L1155.86 827.675L1105.48 825.868L1052.77 826.343L997.076 829.838L939.177 836.777L878.746 848.082L816.601 864.36L811.445 866.167" stroke="#F0F1F1" stroke-linecap="round" stroke-linejoin="round"/>
<path d="M1998.17 115.329L1957.96 103.166L1949.18 100.792L1839.16 71.0983L1823.8 66.943L1816.98 65.1094L1815.34 64.674L1807.51 62.8009L1695.83 36.1939L1680.56 32.5663L1673.69 30.9174L1671.88 30.4952L1664.96 29.0574L1536.08 2.35807L1529.05 0.893824L1527.11 0.498081L1521.17 -0.557217L1404.72 -21.1621L1389.74 -23.8136L1382.57 -25.08L1380.47 -25.4493L1375.42 -26.188L1233.58 -47.0568L1231.33 -47.3866L1218.65 -48.8772L1078.87 -65.3136L922.13 -79.1777L759.93 -88.7942L590.782 -93.9257L412.772 -94.1235L377.091 -89.058L335.199 -83.2143L287.084 -76.4603L232.64 -68.5719L171.892 -59.3511L104.749 -48.5474L31.2117 -35.8705L-48.9058 -20.9906L-135.629 -3.53847L-229.289 16.9213L-330.042 40.8768L-381.164 54.1342" stroke="#F0F1F1" stroke-linecap="round" stroke-linejoin="round"/>
<path d="M1998.17 109.247L1957.96 103.166L1898.03 94.1169L1831.54 84.3421L1759.08 74.2111L1681.11 64.0538L1598.3 54.2262L1511.12 45.0714L1420.16 36.906L1325.76 30.0333L1228.49 24.7435L1128.54 21.3138L1026.36 19.9814L922.051 21.0367L815.918 24.7039L708.031 31.2601L598.535 40.9821L487.497 54.213L388.734 69.1852L374.929 71.2826L274.083 90.1595L260.976 92.5999L158.231 115.83L145.547 118.706L40.8242 146.896L28.8778 150.114L-77.4533 183.897L-89.1623 187.617L-197.26 227.943L-208.139 231.993L-317.331 279.719L-328.157 284.442L-381.164 311.629" stroke="#F0F1F1" stroke-linecap="round" stroke-linejoin="round"/>
<path d="M1850.34 1106.11L1829.02 1072.11L1792.73 1059.53L1756.02 1046.47L1719.23 1033.3L1681.61 1019.75L1643.62 1006.23L1604.36 992.554L1564.42 979.112L1522.76 965.854L1480.11 953.191L1435.42 941.174L1389.41 930.211L1341.15 920.555L1291.38 912.548L1239.29 906.638L1185.66 903.196L1129.94 902.826L1072.89 905.966L1014.27 913.406L954.964 925.66L895.139 943.733L863.836 956.726" stroke="#F0F1F1" stroke-linecap="round" stroke-linejoin="round"/>
<path d="M1998.17 362.825L1964.23 347.496L1871.49 309.149L1739.29 279.033L1609.17 254.075L1482.39 234.381L1357.52 219.619L1235.9 209.871L1116.02 204.977L999.321 205.003L884.314 210.016L772.59 220.081L662.777 235.528L564.78 254.814L556.605 256.423L453.003 283.452L360.728 314.426L353.885 316.721L266.291 354.105L258.775 357.311L175.334 402.452L169.836 405.433L93.4762 458.515L87.5162 462.657L18.6462 525.725L14.585 529.432L-42.9319 602.789L-46.9931 607.973L-93.3284 699.112L-119.938 805.883L-164.941 849.955L-158.111 982.806L-195.137 1043.38L-174.382 1106.11" stroke="#F0F1F1" stroke-linecap="round" stroke-linejoin="round"/>
<path d="M1998.17 43.3035L1964.22 32.8032L1856.51 5.93245L1841.69 2.23886L1830.53 -0.544514L1777.97 -15.1474L1664.05 -39.3535L1652.73 -41.7543L1644.28 -43.5484L1525.78 -65.6703L1508.18 -68.9549L1382.21 -89.1773L1368.71 -91.3406L1238.68 -108.925L1226.36 -110.6L1088.84 -125.691L1079.87 -126.667L937.927 -138.698L929.501 -139.41L887.557 -145.267L733.677 -153.525L733.031 -153.564L691.838 -158.353L531.524 -162.165L490.78 -166.043L322.581 -165.212L143.384 -160.068L-48.2861 -150.056L-257.177 -134.12L-381.164 -121.707" stroke="#F0F1F1" stroke-linecap="round" stroke-linejoin="round"/>
<path d="M1998.16 357.535L1964.22 347.496L1828.55 312.381L1696.42 283.109L1566.38 259.167L1439.87 240.673L1315.25 227.27L1194.05 219.026L1074.6 215.82L958.535 217.707L844.252 224.79L733.491 237.164L624.879 255.21L527.725 277.332L520.288 279.02L427.011 306.92L418.77 309.387L328.473 344.067L322.381 346.415L237.648 388.02L230.91 391.331L151.465 441.432L146.731 444.413L75.8837 503.181L70.8071 507.389L9.50585 577.132L6.27533 580.812L-41.0357 661.86L-44.0816 667.07L-75.6091 767.153L-119.94 805.883L-120.626 929.763L-158.113 982.806L-123.513 1106.11" stroke="#F0F1F1" stroke-linecap="round" stroke-linejoin="round"/>
<path d="M1998.16 42.2221L1964.22 32.8035L1908.57 16.1164L1803.03 -9.14503L1786.27 -13.1552L1777.97 -15.1471L1725.03 -29.3938L1672.72 -43.1524L1620.31 -56.5152L1568.78 -69.39L1517.29 -81.869L1466.76 -93.8863L1416.15 -105.548L1366.45 -116.787L1316.47 -127.709L1267.18 -138.249L1217.28 -148.525L1167.8 -158.458L1117.29 -168.154L1066.83 -177.546L1014.92 -186.714L962.61 -195.592L908.403 -204.232L853.299 -212.596L795.848 -220.695L736.986 -228.517L708.359 -232" stroke="#F0F1F1" stroke-linecap="round" stroke-linejoin="round"/>
<path d="M1998.17 165.772L1966.07 154.956L1954.05 151.288L1844.27 117.822L1832.63 114.643L1721.76 84.2894L1710.59 81.572L1598.3 54.2263L1587.56 51.931L1473.37 27.4874L1463.09 25.5747L1346.58 3.99358L1336.71 2.437L1217.3 -16.3079L1207.88 -17.5215L1084.99 -33.3775L1075.96 -34.2877L948.818 -47.1625L808.019 -57.5573L661.405 -64.3377L507.75 -67.2134L345.26 -65.7491L171.892 -59.3513L164.732 -58.8896L-15.3081 -47.1625L-22.2571 -46.5029L-220.164 -27.9295L-227.166 -27.0721L-381.164 -8.12927" stroke="#F0F1F1" stroke-linecap="round" stroke-linejoin="round"/>
<path d="M1998.17 242.929L1966.76 230.845L1843.35 204.634L1720.52 181.787L1598.43 162.435L1477.43 146.671L1357.36 134.562L1238.62 126.198L1120.87 121.608L1004.58 120.935L889.244 124.246L775.49 131.712L662.698 143.532L551.685 159.902L452.251 179.188L441.794 181.219L343.19 205.478L334.065 207.721L237.452 237.19L227.958 240.079L132.835 275.617L124.766 278.638L32.7017 320.56L24.21 324.425L-65.0322 374.064L-72.0207 377.955L-156.305 435.747L-163.636 440.786L-242.646 508.761L-248.395 513.708L-324.887 599.095L-381.164 684.997" stroke="#F0F1F1" stroke-linecap="round" stroke-linejoin="round"/>
<path d="M1998.17 132.53L1966.31 122.478L1960.19 120.75L1831.54 84.342L1825.85 82.9173L1695.98 50.2555L1690.67 49.0815L1559.14 20.0473L1542.98 16.9605L1420.65 -6.37501L1420.6 -6.3882L1405.58 -8.81542L1280.59 -28.9718L1279.69 -29.1169L1265.74 -30.9637L1137.55 -47.9146L1135.81 -48.1389L1122.96 -49.4712L988.086 -63.4277L835.565 -74.8382L677.004 -82.1858L510.888 -85.1406L335.199 -83.2147L333.248 -83.1487L148.606 -75.788L147.445 -75.7352L145.705 -75.6165L-54.4175 -61.7919L-55.8943 -61.6996L-103.64 -52.0963L-158.349 -40.9232L-220.164 -27.9297L-289.364 -12.7992L-366.132 4.81125L-381.164 8.45208" stroke="#F0F1F1" stroke-linecap="round" stroke-linejoin="round"/>
<path d="M1998.17 161.34L1966.07 154.955L1867.92 136.896L1766.48 119.959L1662.52 104.512L1556.37 90.8453L1448.66 79.2765L1339.56 70.0293L1229.48 63.3149L1118.59 59.3575L1007.06 58.3418L895.059 60.4788L782.61 65.9796L669.897 75.0684L556.828 88.0487L443.693 105.198L341.7 124.76L330.294 126.95L217.08 153.676L114.322 183.053L103.853 186.034L0.791843 221.308L-8.68882 224.566L-111.13 266.33L-120.69 270.234L-222.63 319.728L-231.082 323.844L-331.097 381.913L-339.721 386.912L-381.164 415.933" stroke="#F0F1F1" stroke-linecap="round" stroke-linejoin="round"/>
<path d="M1998.16 1044.05L1975.81 1020.24L1906.56 957.927L1878.71 958.626L1806.28 903.354L1782.32 906.362L1707.77 858.095L1687.37 862.764L1666.75 866.616L1645.94 869.664L1624.69 871.735L1603.22 872.935L1581 873.054L1558.49 872.289L1534.93 870.455L1510.89 867.777L1485.44 864.136L1459.28 859.783L1431.3 854.665L1402.31 849.059L1371.06 843.004L1338.42 836.764L1303.12 830.512L1266.04 824.509L1225.96 819.048L1183.72 814.418L1138.26 811.067L1090.36 809.287L1039.17 809.709L985.448 812.677L928.63 819.022L869.452 829.192L810.973 843.399" stroke="#F0F1F1" stroke-linecap="round" stroke-linejoin="round"/>
<path d="M1998.17 581.247L1968.29 568.135L1833.66 518.325L1822.08 514.051L1817.82 512.468L1791.56 491.15L1761.86 469.556L1630.75 434.269L1615.77 430.246L1479.19 401.66L1475.01 400.776L1343.49 381.161L1337.62 380.29L1206.05 368.708L1078.78 365.687L958.22 371.149L930.319 362.337L900.294 354.079L866.525 346.665L830.633 339.977L791.049 334.384L749.421 329.714L704.233 326.403L657.173 324.227L606.803 323.673L554.705 324.491L499.575 327.221L442.875 331.522L383.381 338.051L322.383 346.415L258.774 357.311L193.636 370.344L125.9 386.292L56.4232 404.773L-15.8092 426.671L-90.204 451.642L-167.829 480.729L-248.395 513.708L-333.049 551.87L-381.164 575.338" stroke="#F0F1F1" stroke-linecap="round" stroke-linejoin="round"/>
<path d="M961.145 1046.03L957.77 1013.82L956.174 982.106L955.436 952.822L954.961 925.661L953.643 900.676L951.124 877.538L946.351 856.34L939.178 836.777L928.629 819.022L914.771 802.849L896.732 788.523L874.791 775.899L872.035 774.817" stroke="#F0F1F1" stroke-linecap="round" stroke-linejoin="round"/>
<path d="M1998.17 128.045L1966.31 122.479L1889.96 109.709L1808.28 96.8609L1721.76 84.2895L1631.12 72.4173L1536.79 61.5476L1439.44 52.0235L1339.32 44.1219L1237.01 38.133L1132.64 34.2943L1026.64 32.8564L919.084 34.0569L810.208 38.1462L700.093 45.3619L588.83 55.9941L476.526 70.3595L376.01 86.73L363.154 88.8274L261.016 109.353L248.898 111.794L145.468 136.949L133.653 139.812L28.7987 170.244L17.8017 173.437L-98.8144 213.499L-205.594 256.74L-215.549 260.777L-322.487 311.814L-332.455 316.576L-381.164 344.067" stroke="#F0F1F1" stroke-linecap="round" stroke-linejoin="round"/>
<path d="M1998.17 238.311L1966.76 230.845L1862.97 194.278L1759.55 161.063L1656.29 130.947L1552.75 103.746L1448.66 79.2763L1343.51 57.4314L1326.09 54.2787L1237.01 38.1325L1219.88 35.4678L1128.54 21.3135L1017.75 6.97451L903.894 -4.84494L786.474 -14.0657L664.544 -20.5427L537.352 -24.078L403.634 -24.3813L262.176 -21.0703L111.079 -13.6172L-51.7144 -1.29646L-229.289 16.9208L-381.164 36.6419" stroke="#F0F1F1" stroke-linecap="round" stroke-linejoin="round"/>
<path d="M1932.06 1106.11L1901.87 1096.45L1865.18 1049.66L1864.75 1049.11L1830.9 1040.39L1789.99 996.986L1789.34 996.287L1741.71 953.745L1740.67 952.822L1686.73 911.836L1685.72 911.084L1624.69 871.734L1558.74 835.801L1488.38 803.865L1415.02 776.73L1339.3 754.912L1328.93 760.848L1254.22 745.176L1179.44 735.428L1105.37 732.025L1099.06 737.024L1091.81 741.114L1021.29 743.303L996.26 745.269L961.199 748.844L959.248 749.107L942.739 753.975L937.398 755.835L935.276 755.769L921.602 758.658L905.396 763.024L893.318 766.138L892.698 766.283L884.035 769.726" stroke="#F0F1F1" stroke-linecap="round" stroke-linejoin="round"/>
<path d="M1998.17 1078.3L1967.17 1072.16L1932.75 1064.91L1882.43 1011.39L1881.85 1010.8L1850.96 1006.62L1796.76 958.005L1795.95 957.28L1768.43 955.486L1740.67 952.821L1712.92 949.444L1684.61 945.118L1656.12 940.092L1626.77 934.129L1597.04 927.56L1566.01 920.173L1534.37 912.337L1500.99 903.934L1466.66 895.32L1430.17 886.508L1392.35 877.815L1352.03 869.425L1310.01 861.643L1265.2 854.783L1218.43 849.164L1168.73 845.272L1116.9 843.438L1062.24 844.336L1005.52 848.346L946.353 856.34L885.527 868.819L823.078 886.838L819.953 888.038" stroke="#F0F1F1" stroke-linecap="round" stroke-linejoin="round"/>
<path d="M1998.17 89.9223L1975.5 83.3398L1969.39 81.5853L1815.12 41.9189L1660.21 7.05415L1504.16 -23.1673L1483.24 -22.7451L1455.64 -23.0617L1421.35 -24.0115L1380.47 -25.4494L1333.19 -27.217L1279.69 -29.1166L1220.3 -30.937L1155.27 -32.4408L1084.99 -33.3774L1009.67 -33.4961L929.752 -32.5463L845.388 -30.251L756.964 -26.3464L664.544 -20.5422L568.458 -12.535L468.68 -2.02152L365.435 11.3545L258.616 27.9888L148.329 48.3035L34.4291 72.8263L-83.1364 102.151L-204.499 137.015L-329.897 178.317L-381.164 197.643" stroke="#F0F1F1" stroke-linecap="round" stroke-linejoin="round"/>
<path d="M1998.17 489.462L1972.86 474.41L1908.99 440.021L1776.84 401.409L1766.11 398.283L1637.45 367.138L1625.45 364.236L1498.12 339.713L1489.49 338.065L1365.91 320.441L1355.93 319.016L1227.08 307.184L1100.87 302.263L979.607 304.308L861.673 313.449L749.421 329.714L641.93 353.709L541.757 385.501L453.121 424.376L449.046 426.156L409.528 428.702L367.294 433.333L323.293 439.585L276.707 448.265L228.433 458.897L177.733 472.379L125.412 488.209L70.809 507.389L14.5843 529.432L-43.8292 555.485L-103.97 585.112L-166.353 619.621L-230.753 658.707L-297.684 703.953L-367.2 755.307L-381.164 766.718" stroke="#F0F1F1" stroke-linecap="round" stroke-linejoin="round"/>
<path d="M1998.16 483.882L1972.86 474.41L1838.52 431.341L1825.94 427.304L1692.84 391.569L1683.8 389.141L1554.5 361.083L1544.02 358.801L1416.24 337.629L1409.07 336.442L1285.37 322.393L1276.7 321.404L1149.3 313.753L1024.93 313.304L905.949 320.085L791.048 334.384L682.646 356.242L580.297 386.398L486.77 424.956L449.045 426.156L369.125 474.463L366.857 475.835L328.407 480.729L260.183 542.715L221.47 551.989L172.418 625.808L170.994 627.958L132.755 642.587L105.315 734.808L105.223 842.542L140.337 966.725L219.518 1106.1" stroke="#F0F1F1" stroke-linecap="round" stroke-linejoin="round"/>
<path d="M1019.46 1084.95L1015.58 1059.78L1012.95 1026.07L1012.47 994.651L1013.01 965.551L1013.98 938.456L1014.27 913.406L1013.53 890.044L1010.66 868.463L1005.52 848.346L997.079 829.839L985.449 812.677L969.639 797.124L949.992 783.022L925.638 770.715L905.477 763.249" stroke="#F0F1F1" stroke-linecap="round" stroke-linejoin="round"/>
<path d="M1998.17 864.123L1974.5 869.848L1950.67 875.652L1848.2 810.751L1828.42 818.613L1726.58 764.264L1623.12 718.635L1519.02 681.792L1416.42 653.971L1316.22 635.108L1220.41 625.174L1130.03 624.119L1047.07 631.77L972.843 648.154L909.472 672.993L858.825 706.354L823.21 747.894L805.105 797.625L809.325 807.162L810.024 862.5" stroke="#F0F1F1" stroke-linecap="round" stroke-linejoin="round"/>
<path d="M1998.17 761.745L1977.53 749.398L1845.13 683.019L1714.04 628.749L1584.34 585.666L1458.67 553.717L1337.01 532.202L1221.7 520.897L1112.98 519.446L1013.17 527.559L923.094 545.182L845.35 572.027L781.688 608.276L735.142 653.523L708.757 708.043L706.094 771.229L724.567 823.282L731.622 843.175L765.865 890.387L788.769 921.954L789.415 922.838L835.54 964.747L876.759 1002.2L885.132 1009.81L919.31 1032.75L936.412 1044.24L949.439 1052.98L980.149 1073.6L1008.72 1092.8L1019.76 1100.2L1022.87 1102.29L1030.2 1106.11" stroke="#F0F1F1" stroke-linecap="round" stroke-linejoin="round"/>
<path d="M1998.17 1021.88L1975.81 1020.24L1944.29 1017.58L1878.71 958.626L1851.06 958.81L1782.33 906.362L1758.35 908.71L1687.37 862.764L1611.53 821.356L1532.08 785.318L1450.15 755.202L1367.06 731.55L1284.07 714.717L1202.54 705.022L1123.77 702.674L1049.22 707.845L983.708 720.02L980.266 720.654L934.881 735.745L921.734 740.111L919.717 740.784L918.504 741.179L891.895 755.413L873.777 765.095L866.195 771.031L861.382 775.332L856.174 780.252L852.258 783.128" stroke="#F0F1F1" stroke-linecap="round" stroke-linejoin="round"/>
<path d="M1998.17 55.9543L1977.89 49.4114L1934.79 36.1277L1889.63 22.6593L1842.37 9.09862L1794.09 -4.35657L1744.52 -17.693L1694.73 -30.7393L1644.28 -43.5481L1594.16 -55.9876L1543.77 -68.1104L1494.06 -79.8243L1444.21 -91.2217L1395.25 -102.21L1346.15 -112.908L1297.92 -123.237L1249.4 -133.289L1201.61 -143.011L1153.28 -152.496L1105.41 -161.677L1056.65 -170.66L1008.01 -179.366L958.075 -187.875L907.85 -196.133L855.872 -204.179L803.141 -211.989L748.195 -219.574L691.984 -226.895L649.367 -232" stroke="#F0F1F1" stroke-linecap="round" stroke-linejoin="round"/>
<path d="M1998.17 67.1538L1977.68 61.4024L1956.29 53.1182L1929.9 43.8446L1898.88 33.7269L1864.11 22.9891L1825.84 11.7501L1785.04 0.247206L1752.26 -7.85229L1741.79 -11.4667L1697.09 -23.1938L1650.77 -34.9078L1603.86 -46.4502L1556 -57.8343L1508.18 -68.9547L1459.85 -79.8243L1412 -90.3774L1363.89 -100.68L1316.5 -110.639L1268.88 -120.348L1222.08 -129.754L1174.98 -138.922L1128.6 -147.813L1081.72 -156.506L1035.36 -164.935L988.206 -173.18L941.251 -181.2L893.122 -189.036L844.809 -196.674L794.9 -204.127L744.359 -211.369L691.747 -218.4L638.001 -225.22L581.698 -231.802L579.852 -232" stroke="#F0F1F1" stroke-linecap="round" stroke-linejoin="round"/>
<path d="M1998.17 55.0702L1977.13 50.5588L1887.8 29.0437L1872.66 25.1786L1864.1 22.9889L1820.26 13.1217L1730.28 -7.11382L1717.4 -10.0027L1709.18 -11.8495L1663.51 -20.7537L1572.58 -38.4829L1559.84 -40.976L1553.11 -42.282L1504.21 -50.3683L1412.55 -65.5384L1401.71 -67.3192L1395.1 -68.4273L1343.49 -75.4583L1251.14 -88.056L1240.24 -89.5466L1234.87 -90.2722L1179.1 -96.2742L1085.99 -106.3L1076.76 -107.289L1071.32 -107.883L1039.35 -113.001L984.948 -117.024L884.814 -124.425L876.955 -125.005L872.221 -125.361L813.36 -128.065L703.191 -133.131L699.697 -133.289L666.469 -136.627L486.89 -139.014L452.145 -141.441L416.372 -143.855L226.561 -139.423L23.9331 -129.213L-46.2159 -123.765L-186.105 -112.895L-193.067 -112.354L-194.597 -112.236L-196.271 -112.104L-197.59 -111.972L-381.164 -92.673" stroke="#F0F1F1" stroke-linecap="round" stroke-linejoin="round"/>
<path d="M1998.17 38.093L1978.44 31.9062L1862.65 2.34441L1853.4 -0.0168422L1798.11 -15.6882L1679.11 -41.7543L1672.72 -43.1526L1559.75 -65.0107L1550.74 -66.7519L1543.77 -68.1107L1426.44 -87.9373L1415.85 -89.7313L1412 -90.3777L1286.92 -108.423L1281.21 -109.241L1276.37 -109.94L1147.27 -125.453L1137.46 -126.641L1000.38 -139.766L993.848 -140.386L846.746 -150.952L845.916 -151.018L803.721 -156.664L651.028 -163.102L609.598 -167.758L450.418 -169.922L409.357 -173.76L241.5 -171.439L61.8689 -164.869L-131.133 -153.459L-342.556 -136.125L-381.164 -132.076" stroke="#F0F1F1" stroke-linecap="round" stroke-linejoin="round"/>
<path d="M1998.17 37.46L1978.44 31.9065L1920.8 14.2696L1808.3 -13.208L1798.11 -15.688L1743.69 -30.7657L1689.39 -45.3553L1636.15 -59.3645L1583.02 -72.9121L1530.95 -85.9319L1478.84 -98.5298L1427.64 -110.666L1376.12 -122.433L1325.28 -133.79L1273.72 -144.831L1222.49 -155.503L1170.14 -165.898L1117.7 -175.963L1063.68 -185.764L1009.12 -195.236L952.537 -204.456L894.914 -213.347L834.8 -221.961L773.143 -230.246L758.836 -232" stroke="#F0F1F1" stroke-linecap="round" stroke-linejoin="round"/>
<path d="M1998.16 431.868L1980.06 422.542L1899.14 384.511L1776.19 351.968L1761.48 348.064L1641.35 321.443L1625.97 318.027L1506.95 296.789L1494.67 294.586L1365.39 277.147L1240.19 265.815L1116.99 260.341L997.882 260.79L881.029 267.24L768.527 279.759L659.018 298.833L571.872 320.269L554.704 324.491L468.93 352.997L461.177 355.569L454.926 357.654L366.185 396.661L362.124 398.455L281.426 445.521L276.706 448.265L204.553 505.146L201.704 507.389L142.223 574.295L139.177 577.725L95.6634 594.65L54.6948 676.713L52.5983 680.895L10.8254 705.206L-6.224 810.566L-44.384 844.468L-25.7787 973.44L-57.082 1020.19L-19.9373 1106.11" stroke="#F0F1F1" stroke-linecap="round" stroke-linejoin="round"/>
<path d="M826.952 906.058L823.075 886.838L816.601 864.36L810.812 851.235" stroke="#F0F1F1" stroke-linecap="round" stroke-linejoin="round"/>
<path d="M899.107 992.567L897.34 973.189L895.138 943.733L893.028 916.532L889.956 891.666L885.526 868.819L878.748 848.082L869.452 829.192L856.714 812.334L840.588 797.295L836.777 794.881" stroke="#F0F1F1" stroke-linecap="round" stroke-linejoin="round"/>
<path d="M1961.18 759.159L1944.26 768.71L1925.79 777.535L1804.87 715.021L1682.98 663.113L1562.87 622.035L1444.88 591.233L1331.43 570.628L1222.93 559.838L1121.62 558.624L1028.28 566.855L945.205 584.202L873.869 610.743L816.84 646.096L776.478 690.406L755.75 743.158L758.097 804.445L772.061 815.13L784.245 825.749L794.134 835.88L801.901 845.774L807.135 855.073L810.023 862.5L810.551 863.833L810.735 865.89L808.995 867.051L816.801 889.265L821.231 899.713L822.418 902.51L827.6 909.29L828.193 910.068L828.839 910.913L829.064 911.203L845.546 933.786L861.527 957.926L873.5 970.01L874.357 970.485L883.02 978.215L884.392 979.442L899.107 992.567" stroke="#F0F1F1" stroke-linecap="round" stroke-linejoin="round"/>
<path d="M1998.17 428.716L1980.06 422.542L1854.82 385.435L1838.27 380.541L1714.13 349.343L1700.85 346.006L1579.71 320.969L1565.56 318.053L1445.52 298.609L1434.59 296.842L1305.68 281.83L1181.01 273.124L1058.5 270.525L940.301 274.087L824.713 284.006L713.925 300.337L606.803 323.673L520.501 349.647L510.111 352.773L505.667 354.105L422.055 387.915L410.28 392.69L334.554 433.504L323.293 439.585L245.799 496.335L183.364 561.131L181.254 563.32L139.178 577.725L94.8209 657.124L93.3045 659.842L52.5996 680.895L31.4495 780.991L-6.22264 810.566L6.1589 932.586L-25.7773 973.44L26.5838 1106.11" stroke="#F0F1F1" stroke-linecap="round" stroke-linejoin="round"/>
<path d="M758.82 489.594L773.747 500.081L787.315 511.267L800.329 522.691L812.315 534.695L823.932 546.831L834.771 559.416L845.346 572.027L855.249 584.941L864.888 597.763L873.867 610.743L882.451 623.526L890.297 636.321L897.536 648.787L903.918 661.108L909.469 672.993L914.005 684.562L917.552 695.564L919.965 706.104L921.284 715.957L921.455 725.152L920.519 733.568L890.178 750.598L874.922 759.159L868.54 762.734L854.814 775.226" stroke="#F0F1F1" stroke-linecap="round" stroke-linejoin="round"/>
<path d="M1998.17 529.221L1983.5 518.72L1935.04 487.813L1795.76 443.2L1787.98 440.72L1652.73 404.945L1643.35 402.465L1509.89 374.473L1503.75 373.18L1374.72 353.222L1366.92 352.021L1235.36 338.988L1107.13 333.738L984.631 336.244L866.525 346.666L755.289 364.988L719.964 360.174L682.648 356.242L641.93 353.71L599.273 352.285L553.386 352.536L505.667 354.106L454.927 357.654L402.487 362.772L347.238 370.173L290.394 379.433L230.912 391.331L169.835 405.433L106.213 422.595L40.877 442.382L-27.0831 465.784L-97.1002 492.404L-170.045 523.403L-245.653 558.506L-324.887 599.095L-381.164 630.319" stroke="#F0F1F1" stroke-linecap="round" stroke-linejoin="round"/>
<path d="M1610.49 729.32L1598.01 739.821L1585.17 749.939L1572.34 759.661L1481.29 726.643L1390.2 701.196L1300.29 683.56L1213.16 673.877L1130.08 672.255L1052.72 678.705L982.534 693.295L921.286 715.958L870.731 746.707L852.06 765.795L834.193 784.065L832.874 785.41L827.877 797.981L827.099 801.319L825.543 803.561" stroke="#F0F1F1" stroke-linecap="round" stroke-linejoin="round"/>
<path d="M1998.17 225.252L1983.16 219.553L1862.97 194.279L1742.66 171.959L1622.64 152.779L1503.14 136.896L1384.23 124.417L1266.23 115.434L1148.95 110.052L1032.79 108.364L917.344 110.514L803.154 116.635L689.702 126.924L577.662 141.593L477.212 159.124L466.491 160.997L366.569 183.264L357.048 185.375L258.616 212.641L248.845 215.359L151.467 248.377L142.989 251.252L48.0106 290.391L39.1892 294.019L-53.6659 340.439L-61.1028 344.159L-149.963 398.362L-157.742 403.098L-242.448 466.891L-248.725 471.627L-333.049 551.87L-381.164 611.851" stroke="#F0F1F1" stroke-linecap="round" stroke-linejoin="round"/>
<path d="M876.465 483.658L887.093 495.424L897.246 507.389L906.304 519.802L915.1 532.334L923.09 545.182L930.949 558.07L938.148 571.182L945.203 584.202L951.651 597.328L957.848 610.268L963.386 623.17L968.502 635.754L972.841 648.154L976.559 660.119L979.394 671.727L981.438 682.768L982.532 693.295L982.717 703.149L981.965 712.29L980.264 720.654L977.693 728.173L937.225 741.021L919.055 746.786L916.84 747.485L915.469 747.933L893.04 759.291" stroke="#F0F1F1" stroke-linecap="round" stroke-linejoin="round"/>
<path d="M1998.16 524.67L1983.5 518.72L1854.4 474.12L1833.12 466.773L1693.97 426.79L1687.62 424.969L1552.84 393.917L1544.78 392.057L1412.18 368.985L1407.16 368.114L1279.37 353.195L1272.69 352.404L1143.81 344.937L1018.86 345.505L900.293 354.079L787.171 370.964L755.288 364.988L650.473 391.833L616.941 388.376L521.699 425.536L486.77 424.956L409.896 469.108L402.908 473.118L366.857 475.835L299.636 533.758L296.946 536.08L260.183 542.715L209.813 613.698L207.809 616.521L170.994 627.958L141.194 717.356L138.188 820.868L170.176 941.081L246.813 1078.77L270.244 1106.11" stroke="#F0F1F1" stroke-linecap="round" stroke-linejoin="round"/>
<path d="M1998.17 223.062L1983.16 219.553L1876.51 182.538L1770.01 148.874L1663.47 118.389L1556.37 90.8453L1539.52 86.9935L1448.52 66.1379L1432 62.8005L1339.32 44.1215L1323.18 41.2986L1228.49 24.7434L1115.37 7.9772L1099.88 6.07765L999.571 -6.17712L880.291 -17.6536L756.964 -26.3467L628.546 -32.0718L494.155 -34.6045L352.341 -33.5756L201.653 -28.5365L39.8485 -18.8144L-135.629 -3.53885L-150.398 -1.85035L-328.592 18.5567L-381.164 26.0494" stroke="#F0F1F1" stroke-linecap="round" stroke-linejoin="round"/>
<path d="M1998.16 300.126L1985.32 294.691L1887.46 256.634L1758.72 229.526L1632.11 206.811L1507.14 188.33L1384.45 174.202L1263.31 164.282L1144.52 158.689L1027.14 157.369L912.148 160.443L798.512 168.015L687.368 180.217L577.727 197.366L479.98 217.733L470.908 219.619L375.666 245.013L366.041 247.585L272.592 278.796L264.681 281.434L174.792 318.66L166.314 322.182L79.5111 366.637L72.7599 370.093L-8.61024 422.08L-15.8097 426.671L-91.655 488.011L-97.1008 492.404L-164.257 563.545L-169.821 569.441L-230.753 658.707L-276.666 763.262L-302.498 884.807L-301.535 1027.74L-347.316 1105.75L-347.211 1106.11" stroke="#F0F1F1" stroke-linecap="round" stroke-linejoin="round"/>
<path d="M1998.17 458.502L1986.28 451.972L1914.11 415.458L1787.65 379.868L1772.54 375.607L1647.16 346.151L1635.43 343.394L1513.28 320.336L1500.52 317.922L1369.99 299.374L1241.65 287.225L1117.72 281.579L996.195 282.318L879.316 289.521L765.548 303.464L657.173 324.227L559.215 350.94L553.386 352.536L469.247 383.826L460.294 387.15L456.668 388.495L376.972 428.478L371.698 431.13L367.294 433.333L297.343 481.072L290.829 485.518L288.271 487.259L245.799 496.335L201.705 507.389L155.41 521.425L107.558 537.874L57.6758 557.846L6.27719 580.812L-46.9938 607.973L-101.781 638.881L-158.362 674.946L-216.578 715.839L-276.666 763.262L-338.692 817.109L-381.164 858.411" stroke="#F0F1F1" stroke-linecap="round" stroke-linejoin="round"/>
<path d="M1998.16 602.472L1990.17 591.523L1968.28 568.135L1942.57 544.087L1806.72 496.466L1798.67 493.643L1791.55 491.15L1661.28 453.74L1649.77 450.429L1645.52 449.215L1515.01 419.825L1508.51 418.374L1502.51 417.015L1368.5 395.078L1365.11 394.524L1236.6 381.53L1231.61 381.029L1104.46 376.438L982.48 380.607L868.146 393.442L761.155 415.313L664.318 446.155L578.596 486.784L507.472 537.162L453.792 598.462L422.185 670.606L418.098 754.885L448.003 850.971L510.597 944.814L520.605 959.8L553.174 958.27L586.376 958.613L619.038 959.932L652.108 962.755L684.334 966.25L716.626 970.933L747.692 976.038L778.389 982.08L807.332 988.333L835.352 995.285L861.025 1002.29L885.129 1009.81L906.266 1017.27L925.161 1025.07L940.523 1032.73L953.208 1042.38L960.75 1047.19L962.807 1047.31L992.225 1068.18L994.335 1070.83L1019.66 1086.33L1030.09 1091.96L1051.47 1106.11" stroke="#F0F1F1" stroke-linecap="round" stroke-linejoin="round"/>
<path d="M1998.17 178.818L1985.43 174.36L1971.57 169.927L1867.92 136.896L1854.41 133.018L1749.86 102.968L1736.85 99.6174L1631.12 72.4168L1618.49 69.5411L1511.12 45.0712L1498.95 42.644L1389.56 20.8386L1377.77 18.8204L1265.79 -0.333495L1254.48 -1.95603L1139.43 -18.4584L1128.48 -19.7248L1009.67 -33.4966L875.887 -45.382L737.026 -53.9432L592.127 -58.9427L439.645 -60.064L277.986 -56.8189L104.749 -48.5479L95.8358 -47.8752L-82.965 -34.3144L-91.9446 -33.3778L-289.364 -12.7993L-381.164 -0.570937" stroke="#F0F1F1" stroke-linecap="round" stroke-linejoin="round"/>
<path d="M1998.16 298.161L1985.32 294.691L1854 263.256L1724.53 236.372L1597.54 214.145L1472.35 196.363L1349.73 183.106L1228.77 174.228L1110.38 169.822L993.505 169.848L879.236 174.413L766.443 183.673L656.42 197.722L558.515 215.121L548.098 216.968L442.927 241.53L349.321 269.364L340.077 272.108L248.66 306.142L241.236 308.912L154.024 349.317L146.007 353.024L62.6198 401.198L56.4224 404.773L-20.5173 460.969L-27.0839 465.783L-97.1801 532.096L-101.953 536.621L-161.606 613.5L-166.353 619.621L-216.578 715.839L-248.422 828.572L-255.938 959.721L-301.535 1027.74L-284.459 1106.11" stroke="#F0F1F1" stroke-linecap="round" stroke-linejoin="round"/>
<path d="M822.419 902.51L813.07 893.052L810.327 886.654L796.931 855.351L795.019 850.892L784.246 825.749L780.633 765.926L799.146 714.348L836.62 670.975L890.3 636.321L957.851 610.268L1036.87 593.199L1125.81 585.046L1222.49 586.115L1325.91 596.51L1433.97 616.402L1545.96 646.083L1659.66 685.551L1774.4 735.164L1887.65 794.565L1907.22 786.307L1998.17 842.885" stroke="#F0F1F1" stroke-linecap="round" stroke-linejoin="round"/>
<path d="M1596.89 522.124L1597.75 535.328L1597.26 548.387L1594.16 560.959L1590.22 573.477L1584.34 585.666L1578.09 597.895L1570.48 609.912L1562.87 622.035L1554.31 634.013L1545.95 646.083L1536.97 658.034L1528.23 669.999L1519.02 681.792L1509.98 693.479L1500.53 704.877L1491.11 715.984L1481.29 726.642L1471.31 736.8L1460.92 746.363L1375.21 722.091L1290 705.009L1206.65 695.313L1126.58 693.242L1051.17 698.861L982.903 712.105L981.967 712.29L931.834 729.65L921.602 733.198L920.52 733.568L918.503 741.179L915.47 747.933L911.501 753.724L906.636 758.631L901.295 763.13L898.605 764.502L894.017 763.961L883.6 768.512L872.537 774.606L872.036 774.817L867.79 776.611L866.405 777.205L853.773 782.508L852.257 783.128L852.02 783.312" stroke="#F0F1F1" stroke-linecap="round" stroke-linejoin="round"/>
<path d="M1210.51 470.611L1214.57 482.998L1218.03 495.517L1219.99 508.141L1221.7 520.897L1222.35 533.785L1223.02 546.765L1222.93 559.838L1222.99 572.963L1222.49 586.115L1222.11 599.227L1221.25 612.287L1220.41 625.174L1219.08 637.878L1217.59 650.264L1215.54 662.308L1213.16 673.877L1210.18 684.918L1206.66 695.313L1202.54 705.022L1197.76 713.939L1192.36 722.025L1116.02 719.137L1042.91 723.331L989.537 732.262L974.215 734.821L939.364 745.335L937.505 745.889L915.511 752.511L913.784 754.819L911.226 757.312L908.522 758.091L906.637 758.631L900.769 761.956L894.664 765.504" stroke="#F0F1F1" stroke-linecap="round" stroke-linejoin="round"/>
<path d="M1998.17 177.038L1985.43 174.36L1880.32 154.006L1772.77 135.234L1663.47 118.389L1552.75 103.747L1441.1 91.5447L1328.72 81.9942L1215.9 75.2798L1102.8 71.5994L989.51 71.1113L876.217 74.0002L762.831 80.4772L649.657 90.7664L536.443 105.145L434.634 122.083L423.65 123.916L321.842 145.247L310.951 147.529L208.918 173.806L199.015 176.352L97.484 207.998L87.5287 211.098L-22.5999 252.294L-122.417 296.96L-131.476 301.01L-229.975 353.828L-237.82 358.036L-333.273 419.825L-341.329 425.035L-381.164 456.55" stroke="#F0F1F1" stroke-linecap="round" stroke-linejoin="round"/>
<path d="M1463.57 503.326L1464.12 516.003L1463.79 528.68L1461.45 541.159L1458.66 553.717L1454.45 566.17L1450.17 578.728L1444.89 591.233L1439.77 603.844L1433.97 616.403L1428.39 629.013L1422.31 641.532L1416.42 653.972L1410.09 666.226L1403.8 678.257L1397.09 689.931L1390.2 701.197L1382.89 711.961L1375.21 722.092L1367.06 731.55L1358.37 740.203L1277.6 723.662L1197.76 713.939L1120.29 711.328L1046.43 716.024L986.966 726.537L977.696 728.173L974.215 734.821L969.995 740.52L945.14 747.63L925.19 753.329L913.784 754.819L911.503 753.725L893.201 760.861L878.34 768.182L871.193 773.841L866.407 776.757L864.891 777.443" stroke="#F0F1F1" stroke-linecap="round" stroke-linejoin="round"/>
<path d="M1998.16 456.272L1986.28 451.972L1855.36 411.132L1842.86 407.24L1715.21 373.602L1701.64 370.027L1575.16 342.774L1565.01 340.584L1441.98 319.979L1430.62 318.067L1300.77 302.633L1173.29 293.821L1050.45 291.737L930.396 296.38L815.415 307.79L704.232 326.403L599.272 352.285L510.873 382.651L500.127 386.345L419.97 423.822L409.527 428.702L336.121 475.782L328.407 480.729L288.269 487.259L224.37 549.192L221.469 551.989L181.252 563.32L134.838 639.184L132.755 642.587L93.3025 659.841L68.7635 756.204L71.9545 867.737L111.697 997.461L83.7559 1032.92L57.7269 1074.76L41.6797 1106.11" stroke="#F0F1F1" stroke-linecap="round" stroke-linejoin="round"/>
<path d="M1998.17 48.9628L1986.15 45.2033L1974.09 42.1693L1867.85 16.5648L1764.85 -6.15073L1752.26 -7.85242L1654.26 -27.2173L1641.94 -29.8028L1633.56 -31.5573L1592.5 -41.6487L1567.46 -47.1495L1557.41 -50.2758L1549.52 -51.806L1533.1 -54.5234L1417.23 -73.7696L1405.38 -75.7484L1399.95 -76.6454L1379.76 -79.4419L1261.59 -95.7992L1254.05 -95.5486L1143.4 -107.263L1135.35 -108.212L1129.98 -108.845L1095.16 -113.344L1091.78 -115.085L1052.12 -121.285L1011.93 -127.406L970.72 -133.461L822.128 -143.235L815.707 -143.657L814.204 -143.75L773.551 -148.683L612.393 -154.277L611.879 -154.29L571.583 -158.234L402.751 -159.012L223.699 -155.411L32.9918 -146.889L-173.816 -132.471L-381.164 -112.869" stroke="#F0F1F1" stroke-linecap="round" stroke-linejoin="round"/>
<path d="M1998.17 48.5672L1986.15 45.2034L1935.01 29.7035L1883.21 14.4543L1767.91 -12.2714L1744.52 -17.6931L1624.57 -42.2158L1610.51 -45.0915L1603.85 -46.4502L1476.91 -68.9547L1460.35 -71.8832L1329.39 -91.6174L1314.42 -93.8732L1176.57 -110.969L1164.9 -112.42L1162.21 -112.684L1022.71 -126.35L1014.58 -127.155L1011.93 -127.406L1003.94 -127.986L861.976 -138.17L857.559 -138.486L853.985 -138.737L814.204 -143.75L812.212 -143.829L654.021 -150.174L651.358 -150.279L611.879 -154.29L442.177 -155.886L263.587 -153.142L72.7341 -145.346L-132.636 -131.812L-158.837 -129.397L-357.429 -111.207L-357.654 -111.18L-358.089 -111.141L-381.164 -108.436" stroke="#F0F1F1" stroke-linecap="round" stroke-linejoin="round"/>
<path d="M1908.03 1106.11L1901.87 1096.45L1865.46 1084.51L1830.9 1040.39L1797.22 1031.27L1763.22 1021.48L1729.24 1011.31L1694.51 1000.51L1659.52 989.441L1623.42 977.872L1586.75 966.211L1548.51 954.312L1509.39 942.611L1468.28 931.069L1425.94 920.081L1381.29 909.805L1335.13 900.61L1286.47 892.814L1236.1 886.786L1183.22 883.013L1128.63 881.878L1071.8 884.068L1013.53 890.044L953.644 900.676L893.028 916.532L846.152 933.562" stroke="#F0F1F1" stroke-linecap="round" stroke-linejoin="round"/>
<path d="M1819.9 1106.11L1815.41 1096.44L1776.79 1080.8L1737.6 1064.97L1698.24 1049.33L1657.92 1033.63L1617.08 1018.3L1574.83 1003.2L1531.81 988.755L1486.97 974.957L1441.07 962.214L1393.13 950.698L1343.89 940.778L1292.55 932.837L1239.84 927.204L1185.17 924.447L1129.31 924.962L1071.97 929.473L1013.98 938.457L955.436 952.822L897.339 973.189L884.391 979.442" stroke="#F0F1F1" stroke-linecap="round" stroke-linejoin="round"/>
<path d="M1998.16 959.8L1990.77 953.204L1902.39 886.258L1878.17 891.086L1788.38 833.413L1768.2 840.286L1678.15 791.544L1585.17 749.938L1491.11 715.984L1397.08 689.931L1304.82 672.004L1215.54 662.308L1130.91 660.857L1052.3 667.703L981.438 682.768L919.966 706.104L869.807 737.525L832.978 777.06L826.122 792.309L822.06 801.345L818.408 809.484L812.619 822.372L811.67 824.47L811.406 828.836" stroke="#F0F1F1" stroke-linecap="round" stroke-linejoin="round"/>
<path d="M1998.17 84.8695L1988.94 82.1785L1832.8 41.813L1815.12 41.9185L1790.14 40.7181L1757.85 38.3172L1718.35 34.8479L1671.88 30.4948L1618.7 25.482L1559.14 20.0472L1493.69 14.4672L1422.65 9.00601L1346.58 3.9933L1265.79 -0.333471L1180.84 -3.64451L1091.94 -5.68917L999.571 -6.17725L903.894 -4.84491L805.303 -1.41516L703.811 4.41543L599.748 12.8975L493.074 24.3872L383.961 39.2274L287.915 55.2153L272.355 57.814L173.25 77.6275L158.297 80.6087L56.1067 104.788L41.7868 108.165L-63.3707 137.305L-77.2555 141.157L-185.525 176.061L-198.737 180.322L-309.842 221.862L-322.816 226.716L-381.164 251.978" stroke="#F0F1F1" stroke-linecap="round" stroke-linejoin="round"/>
<path d="M1998.17 81.3871L1988.94 82.1786L1969.39 81.5849L1942.16 79.382L1907.3 75.728L1864.92 70.7416L1815.34 64.6736L1758.89 57.735L1695.98 50.2555L1627.09 42.499L1552.75 34.8084L1473.37 27.4872L1389.56 20.8387L1301.62 15.1796L1210.16 10.8001L1115.37 7.97715L1017.75 6.97461L917.396 8.0695L814.691 11.5125L709.666 17.6068L602.57 26.6298L493.404 38.8845L397.173 52.6167L382.26 54.7405L269.178 74.6067L167.857 96.0559L154.131 98.958L50.2785 125.064L37.2377 128.348L-81.62 163.49L-190.206 201.019L-202.179 205.161L-312.769 249.709L-324.57 254.458L-381.164 281.025" stroke="#F0F1F1" stroke-linecap="round" stroke-linejoin="round"/>
<path d="M1998.17 595.191L1990.17 591.524L1865.09 543.019L1844.35 534.985L1838.33 532.637L1817.82 512.468L1682.44 471.337L1669.85 467.525L1645.52 449.215L1615.77 430.246L1582.95 411.29L1544.78 392.057L1503.75 373.18L1457.65 354.448L1409.07 336.442L1355.93 319.016L1300.78 302.633L1241.65 287.225L1181.01 273.124L1116.99 260.341L1051.89 249.049L983.985 239.314L915.3 231.188L844.254 224.791L772.589 220.081L698.84 217.232L624.472 216.111L548.099 216.968L470.909 219.619L391.582 224.382L311.03 231.083L227.958 240.079L142.989 251.252L54.854 265.064L-36.1946 281.447L-131.476 301.01L-231.082 323.844L-336.569 350.755L-381.164 363.234" stroke="#F0F1F1" stroke-linecap="round" stroke-linejoin="round"/>
<path d="M811.671 824.47L811.539 816.185L809.324 807.163L828.14 758.249L823.209 747.894L816.682 737.156L808.599 725.864L799.144 714.348L788.372 702.397L776.478 690.406L763.543 678.085L749.724 665.896L735.14 653.523L719.871 641.44L704.021 629.304L687.552 617.669L670.582 606.126L652.966 595.257L634.822 584.638L615.86 574.876L596.253 565.51L575.604 557.2L554.111 549.456L531.312 542.94" stroke="#F0F1F1" stroke-linecap="round" stroke-linejoin="round"/>
<path d="M1998.17 742.459L1991.63 738.607L1856.67 671.78L1721.91 616.719L1590.22 573.478L1461.45 541.159L1338.07 519.565L1219.99 508.141L1109.53 506.611L1007.09 514.776L915.103 532.334L834.774 559.416L768.897 595.679L719.872 641.44L691.061 696.223L686.301 760.32L704.207 816.04L709.64 832.952L746.864 886.166L766.392 914.065L817.843 962.042L860.078 1001.41L861.027 1002.29L924.122 1045.23L980.109 1083.32L999.914 1096.81L1017.6 1106.11" stroke="#F0F1F1" stroke-linecap="round" stroke-linejoin="round"/>
<path d="M1998.17 952.65L1990.77 953.204L1962.64 955.183L1878.17 891.086L1854.23 895.65L1768.2 840.286L1748.19 846.79L1661.7 799.855L1645.22 807.677L1559.17 768.855L1471.31 736.8L1382.88 711.961L1295.41 694.588L1210.18 684.918L1128.67 683.058L1052.33 689.126L982.719 703.149L928.195 722.738L921.457 725.152L887.622 744.965L871.509 754.41L870.296 755.11L868.542 762.734L865.536 769.501L862.015 776.229L855.449 779.474L850.372 783.563L841.538 789.262L835.38 790.937L831.134 793.035L827.178 800.224L825.214 803.957L823.75 806.477" stroke="#F0F1F1" stroke-linecap="round" stroke-linejoin="round"/>
<path d="M1998.17 208.578L1992.65 206.52L1876.51 182.539L1759.55 161.063L1642.29 142.345L1524.94 126.594L1407.78 113.957L1291.03 104.565L1174.68 98.5361L1059.03 96.0166L943.834 97.1247L829.526 102.019L715.705 110.91L602.926 123.995L501.764 139.865L490.727 141.606L389.776 161.987L379.834 163.992L279.885 189.174L269.797 191.707L170.481 222.376L161.581 225.12L64.0182 261.634L54.854 265.064L-41.2316 308.477L-49.1168 312.038L-142.104 362.891L-150.279 367.376L-240.141 427.291L-246.932 431.816L-331.295 501.545L-338.31 507.336L-381.164 552.372" stroke="#F0F1F1" stroke-linecap="round" stroke-linejoin="round"/>
<path d="M1998.17 71.4672L1993.25 68.4728L1977.67 61.4022L1897.44 41.4569L1875.3 35.9561L1838.05 26.6958L1825.64 23.609L1818.55 21.8413L1797.88 14.5069L1742.97 2.83255L1694.56 -6.25629L1677.41 -8.78903L1665.41 -11.3877L1658.88 -12.8124L1599.74 -23.814L1571.85 -28.9982L1530.83 -35.4356L1519.24 -36.4381L1514.43 -38.5224L1504.3 -41.5696L1498.02 -42.7436L1478.18 -48.5082L1416.07 -57.9268L1348.36 -68.2029L1332.71 -70.5774L1321.83 -72.2263L1315.8 -73.1365L1249.76 -81.1964L1166.98 -91.301L1156.35 -92.6069L1150.88 -93.2665L1127.53 -97.9628L1059.47 -103.991L974.201 -111.537L964.154 -112.434L959.182 -112.869L885.552 -117.249L790.719 -122.908L785.748 -123.198L706.092 -125.651L610.27 -128.593L605.893 -128.725L579.613 -131.363L390.976 -131.02L190.801 -124.886L-24.1559 -112.104L-145.216 -101.366L-248.277 -92.2244L-255.437 -91.5912L-259.115 -91.2614L-381.164 -76.8433" stroke="#F0F1F1" stroke-linecap="round" stroke-linejoin="round"/>
<path d="M1998.17 207.787L1992.65 206.52L1882.75 169.176L1772.77 135.234L1756.49 130.696L1662.52 104.512L1646.62 100.541L1551.48 76.8098L1536.01 73.3932L1439.44 52.0232L1424.31 49.0947L1325.76 30.0332L1311.05 27.5796L1210.16 10.8002L1195.78 8.79515L1091.94 -5.68897L1077.93 -7.27193L970.628 -19.408L845.388 -30.2513L715.533 -38.1001L579.93 -42.7303L437.496 -43.8516L286.557 -41.0154L125.319 -33.6678L-48.9058 -20.9909L-61.6038 -19.7114L-239.376 -1.86347L-381.164 16.3802" stroke="#F0F1F1" stroke-linecap="round" stroke-linejoin="round"/>
<path d="M1846.73 37.5919L1843.5 33.5158L1833.98 28.2393L1818.34 20.641L1805.05 16.2483L1797.89 14.5071L1772.3 6.32842L1742.65 -2.49659L1709.18 -11.8493L1672.78 -21.5713L1633.56 -31.5571L1599.85 -38.9179L1592.5 -41.6485L1549.52 -51.8059L1505.55 -61.8841L1460.35 -71.8831L1414.9 -81.6975L1368.71 -91.3404L1322.76 -100.746L1276.37 -109.94L1230.55 -118.884L1184.41 -127.617L1138.99 -136.099L1093.24 -144.383L1048.17 -152.43L1002.64 -160.305L957.667 -167.982L911.938 -175.488L866.512 -182.823L820.006 -189.986L773.433 -196.99L725.384 -203.823L676.833 -210.498L626.358 -216.988L574.893 -223.281L521.002 -229.375L496.266 -232" stroke="#F0F1F1" stroke-linecap="round" stroke-linejoin="round"/>
<path d="M1998.17 69.8843L1993.25 68.4727L1868.32 36.919L1840.61 29.9144L1833.97 28.2391L1725.01 4.178L1691.86 -3.1432L1680.48 -5.64956L1674.1 -7.06102L1615.44 -18.1945L1562.62 -28.2068L1530.83 -35.4356L1514.43 -38.5224L1450.08 -47.6245L1398.79 -55.7899L1367.06 -60.829L1356.47 -62.5175L1350.67 -63.4409L1335.48 -68.0711L1315.8 -73.1365L1292.22 -78.5714L1265 -84.3228L1234.87 -90.2721L1201.92 -96.3929L1166.99 -102.606L1129.98 -108.846L1091.78 -115.085L1063.73 -118.765L1056.76 -120.797L1052.12 -121.285L1034.99 -122.617L903.749 -132.867L896.009 -133.474L893.49 -133.672L853.985 -138.737L842.435 -139.278L692.208 -146.177L690.784 -146.243L672.93 -146.586L520.237 -149.62L341.41 -148.538L302.551 -150.82L263.587 -153.142L223.699 -155.411L183.97 -157.746L143.384 -160.068L103.075 -162.482L61.8689 -164.869L20.9135 -167.362L-21.0835 -169.829L-62.9883 -172.415L-106.212 -174.961L-149.659 -177.586L-194.781 -180.132L-240.563 -182.717L-288.52 -185.184L-337.73 -187.624L-381.164 -189.511" stroke="#F0F1F1" stroke-linecap="round" stroke-linejoin="round"/>
<path d="M1998.17 193.078L1993.87 191.522L1978.31 186.377L1880.32 154.006L1865.15 149.468L1766.48 119.959L1751.75 115.988L1652.14 89.1965L1637.79 85.7536L1536.79 61.5474L1522.89 58.6058L1420.16 36.906L1406.62 34.426L1301.62 15.1798L1288.53 13.1351L1180.84 -3.64428L1168.09 -5.2932L1057.06 -19.5794L929.752 -32.5465L797.998 -42.4401L660.983 -49.0885L517.402 -52.2017L365.949 -51.4234L204.633 -46.226L31.2117 -35.8708L20.3334 -34.921L-157.624 -19.342L-168.489 -18.0756L-366.132 4.81138L-381.164 6.98796" stroke="#F0F1F1" stroke-linecap="round" stroke-linejoin="round"/>
<path d="M1846.73 37.5919L1843.27 40.3753L1832.8 41.8132L1676.13 6.35473L1518.41 -24.3943L1358.99 -50.5528L1197.08 -72.1998L1031.76 -89.3486L861.818 -101.907L686.881 -111.062L503.056 -115.151L408.131 -113.713L307.826 -112.183L214.047 -107.962L99.0795 -102.777L-102.15 -87.6205L-126.769 -84.3491L-129.696 -79.5606L-139.031 -75.4185L-154.274 -70.4322L-175.688 -64.5092L-203.537 -57.5046L-238.071 -49.2732L-279.527 -39.6303L-328.183 -28.3517L-381.164 -21.1756" stroke="#F0F1F1" stroke-linecap="round" stroke-linejoin="round"/>
<path d="M1998.17 192.458L1993.87 191.522L1882.75 169.176L1770.01 148.874L1656.29 130.947L1541.87 115.606L1427.08 103.047L1312.18 93.4574L1197.29 86.9804L1082.63 83.7881L968.136 84.0124L854.091 87.8247L740.283 95.4361L627.096 107.058L514.198 122.993L412.601 141.606L402.171 143.519L301.074 166.709L290.618 169.11L189.719 197.524L180.357 200.162L80.5797 234.183L71.0463 237.441L-27.8479 278.018L-36.1946 281.447L-132.847 329.134L-141.458 333.382L-235.908 389.656L-243.213 394.009L-333.444 459.663L-340.973 465.137L-381.164 501.506" stroke="#F0F1F1" stroke-linecap="round" stroke-linejoin="round"/>
<path d="M1715.31 1106.1L1715.25 1104.63L1709.1 1077.57L1667.36 1060.13L1624.5 1043.04L1581.03 1026.69L1536.04 1011.03L1490.17 996.485L1442.52 983.122L1393.76 971.329L1343.12 961.409L1291.27 953.705L1237.64 948.706L1182.95 946.78L1126.88 948.587L1070.21 954.576L1013.01 965.551L956.176 982.106L909.168 1001.55" stroke="#F0F1F1" stroke-linecap="round" stroke-linejoin="round"/>
<path d="M1464.45 503.537L1463.57 503.326L1335.76 482.18L1333.69 481.837L1210.51 470.612L1204.4 458.344L1197.29 446.194L1077.62 445.416L1067.51 433.821L954.634 442.989L941.62 432.106L836.779 451.141L820.956 441.182L802.838 431.974L707.029 461.325L686.354 453.45L601.714 493.05L578.599 486.784L554.178 481.257L482.065 532.835L455.416 529.419L426.987 527.677L371.382 591.959L336.822 668.284L328.977 756.732L355.124 858.939L423.48 974.693L545.436 1105L546.874 1106.11" stroke="#F0F1F1" stroke-linecap="round" stroke-linejoin="round"/>
<path d="M841.707 935.171L834.85 926.386L829.827 919.949L824.209 912.759L818.236 905.121L801.332 883.461L796.229 871.536L785.496 846.499L772.059 815.13L769 754.753L788.37 702.397L827.123 658.694L882.451 623.526L951.651 597.328L1032.85 580.007L1123.69 571.868L1222.99 572.963L1328.57 583.542L1439.77 603.844L1554.31 634.013L1671.75 674.444L1789.58 725.059L1907.22 786.307L1925.79 777.535L1998.16 822.161" stroke="#F0F1F1" stroke-linecap="round" stroke-linejoin="round"/>
<path d="M827.574 911.678L825.899 907.628L819.293 888.303L819.161 887.973L808.995 867.051L802.402 855.364L794.134 835.88L790.68 776.968L808.599 725.864L845.111 683.151L897.538 648.787L963.388 623.169L1040.76 606.205L1127.43 598.225L1222.11 599.227L1322.72 609.437L1428.39 629.013L1536.98 658.034L1647.78 696.724L1758.46 744.939L1868.23 802.862L1887.65 794.565L1998.17 863.753" stroke="#F0F1F1" stroke-linecap="round" stroke-linejoin="round"/>
<path d="M810.064 865.745L807.282 858.925L801.902 845.774L798.816 787.455L816.683 737.156L852.562 694.891L903.921 661.108L968.506 635.754L1044.06 619.146L1129 611.231L1221.25 612.287L1319.7 622.338L1422.31 641.532L1528.23 669.999L1635.33 707.7L1742.76 754.753L1848.2 810.751L1868.23 802.862L1974.5 869.848L1998.17 887.524" stroke="#F0F1F1" stroke-linecap="round" stroke-linejoin="round"/>
<path d="M810.18 866.036L810.311 864.796L810.813 851.235L810.971 843.399L811.208 831.989L811.393 828.994L811.406 828.836L811.722 828.282L815.111 821.792L816.997 817.518L822.64 806.121L825.845 801.754L829.036 799.67L831.132 793.035L832.873 785.41L832.978 777.06L831.396 767.932L828.139 758.249L863.833 717.264L914.005 684.562L976.559 660.119L1049.39 644.17L1130.86 636.704L1219.07 637.878L1312.77 647.692L1410.09 666.226L1509.98 693.48L1610.48 729.321L1623.12 718.636L1635.33 707.7L1647.77 696.725L1659.65 685.552L1671.75 674.445L1682.98 663.113L1694.28 651.861L1704.29 640.292L1714.03 628.75L1721.91 616.719L1729.03 604.596L1733.6 591.788L1736.87 578.741L1736.85 564.824L1734.87 550.525" stroke="#F0F1F1" stroke-linecap="round" stroke-linejoin="round"/>
<path d="M835.076 789.209L836.276 788.048L842.987 781.558L853.984 770.9L870.295 755.11L870.73 746.707L869.807 737.525L867.5 727.724L863.834 717.264L858.824 706.354L852.56 694.891L845.11 683.151L836.618 670.975L827.125 658.694L816.84 646.096L805.737 633.551L794.054 620.795L781.686 608.276L768.896 595.679L755.459 583.464L741.64 571.314L727.083 559.706L712.078 548.282L696.123 537.571L679.561 527.176L661.773 517.652" stroke="#F0F1F1" stroke-linecap="round" stroke-linejoin="round"/>
<path d="M948.396 1036.55L935.316 1024.87L907.784 1002.12L899.477 996.604" stroke="#F0F1F1" stroke-linecap="round" stroke-linejoin="round"/>
<path d="M1017.44 1083.6L996.565 1069.67L992.305 1068.15L965.327 1051.65L960.778 1047.38L953.75 1041.28L948.397 1036.55L935.211 1024.93L908.997 1001.62L899.134 992.871L883.865 979.692L882.441 978.413L876.256 972.978L873.777 970.392L871.101 967.583L860.13 958.771L858.231 956.344L843.331 934.591L830.686 915.675L830.264 915.134L828.207 911.295L825.873 907.074L813.07 893.051L801.334 883.461L786.882 873.449L770.466 863.49L751.768 853.227L742.736 829.403L724.922 782.429L725.463 719.717L749.725 665.896L794.056 620.795L855.251 584.941L930.952 558.07L1018.43 540.578L1116.36 532.386L1222.35 533.785L1335.81 544.958L1454.44 566.17L1578.09 597.895L1704.29 640.292L1832.93 694.099L1961.18 759.159L1977.53 749.398L1991.63 738.607L1998.17 732.948" stroke="#F0F1F1" stroke-linecap="round" stroke-linejoin="round"/>
<path d="M828.193 910.068L827.336 907.958L826.98 906.599L819.952 888.039L819.847 887.775L811.447 866.167L811.289 865.745" stroke="#F0F1F1" stroke-linecap="round" stroke-linejoin="round"/>
</g>
<defs>
<clipPath id="clip0_4_36013">
<rect width="1967" height="1107" fill="white" transform="translate(-175)"/>
</clipPath>
</defs>
</svg>
